ISO-10303-21;
HEADER;
FILE_DESCRIPTION (( 'STEP AP214' ),
    '1' );
FILE_NAME ('EA36F425-1501-4C9F-994F-4B9E85C4B4AF.STEP',
    '2023-02-12T10:48:11',
    ( '' ),
    ( '' ),
    'SwSTEP 2.0',
    'SolidWorks 2022',
    '' );
FILE_SCHEMA (( 'AUTOMOTIVE_DESIGN' ));
ENDSEC;

DATA;
#1 = EDGE_CURVE ( 'NONE', #264, #851, #234, .T. ) ;
#2 = DIRECTION ( 'NONE',  ( 0.0000000000000000000, 0.0000000000000000000, 1.000000000000000000 ) ) ;
#3 = DIRECTION ( 'NONE',  ( -1.000000000000000000, 0.0000000000000000000, 0.0000000000000000000 ) ) ;
#4 = VERTEX_POINT ( 'NONE', #918 ) ;
#5 = DIRECTION ( 'NONE',  ( 0.0000000000000000000, 0.0000000000000000000, -1.000000000000000000 ) ) ;
#6 = VECTOR ( 'NONE', #493, 1000.000000000000000 ) ;
#7 = DIRECTION ( 'NONE',  ( 0.0000000000000000000, 0.0000000000000000000, -1.000000000000000000 ) ) ;
#8 = LINE ( 'NONE', #806, #1099 ) ;
#9 = ORIENTED_EDGE ( 'NONE', *, *, #465, .F. ) ;
#10 = DIRECTION ( 'NONE',  ( 0.7071067811865475727, 1.471961680016040898E-16, -0.7071067811865475727 ) ) ;
#11 = CONICAL_SURFACE ( 'NONE', #261, 3.999999999966803443, 0.7853981634542916979 ) ;
#12 = DIRECTION ( 'NONE',  ( 0.0000000000000000000, 0.0000000000000000000, 1.000000000000000000 ) ) ;
#13 = LINE ( 'NONE', #1068, #846 ) ;
#14 = CONICAL_SURFACE ( 'NONE', #754, 4.000000000071385564, 0.7853981634542916979 ) ;
#15 = ORIENTED_EDGE ( 'NONE', *, *, #639, .F. ) ;
#16 = PLANE ( 'NONE',  #519 ) ;
#17 = EDGE_CURVE ( 'NONE', #553, #227, #742, .T. ) ;
#18 =( NAMED_UNIT ( * ) PLANE_ANGLE_UNIT ( ) SI_UNIT ( $, .RADIAN. ) );
#19 = FILL_AREA_STYLE ('',( #1000 ) ) ;
#20 = DIRECTION ( 'NONE',  ( -1.000000000000000000, 0.0000000000000000000, -0.0000000000000000000 ) ) ;
#21 = SURFACE_STYLE_FILL_AREA ( #737 ) ;
#22 = CARTESIAN_POINT ( 'NONE',  ( 6.500000000000001776, -6.500000000000000888, 4.049999999999999822 ) ) ;
#23 = VERTEX_POINT ( 'NONE', #730 ) ;
#24 = FILL_AREA_STYLE ('',( #277 ) ) ;
#25 = EDGE_CURVE ( 'NONE', #817, #928, #1094, .T. ) ;
#26 =( NAMED_UNIT ( * ) PLANE_ANGLE_UNIT ( ) SI_UNIT ( $, .RADIAN. ) );
#27 = CIRCLE ( 'NONE', #933, 1.000000000000000000 ) ;
#28 = VECTOR ( 'NONE', #99, 1000.000000000000000 ) ;
#29 = CARTESIAN_POINT ( 'NONE',  ( -12.50000000000000000, 12.50000000000000000, 4.000000000000000000 ) ) ;
#30 = LINE ( 'NONE', #378, #439 ) ;
#31 = SURFACE_SIDE_STYLE ('',( #999 ) ) ;
#32 = PRESENTATION_STYLE_ASSIGNMENT (( #267 ) ) ;
#33 = AXIS2_PLACEMENT_3D ( 'NONE', #594, #326, #320 ) ;
#34 = CARTESIAN_POINT ( 'NONE',  ( 5.000000000000007994, -8.500000000000000000, 4.000000000000000000 ) ) ;
#35 = UNCERTAINTY_MEASURE_WITH_UNIT (LENGTH_MEASURE( 1.000000000000000082E-05 ), #692, 'distance_accuracy_value', 'NONE');
#36 = PLANE ( 'NONE',  #840 ) ;
#37 = DIRECTION ( 'NONE',  ( 0.0000000000000000000, 0.7071067811865474617, 0.7071067811865474617 ) ) ;
#38 = VECTOR ( 'NONE', #593, 1000.000000000000000 ) ;
#39 = EDGE_LOOP ( 'NONE', ( #1117, #776, #167, #399 ) ) ;
#40 =( LENGTH_UNIT ( ) NAMED_UNIT ( * ) SI_UNIT ( .MILLI., .METRE. ) );
#41 = EDGE_CURVE ( 'NONE', #72, #723, #1001, .T. ) ;
#42 = FILL_AREA_STYLE_COLOUR ( '', #140 ) ;
#43 = ORIENTED_EDGE ( 'NONE', *, *, #55, .T. ) ;
#44 = CARTESIAN_POINT ( 'NONE',  ( -1.100000000000000089, 0.0000000000000000000, 4.000000000000000000 ) ) ;
#45 = LINE ( 'NONE', #895, #1008 ) ;
#46 = PRESENTATION_LAYER_ASSIGNMENT (  '', '', ( #545 ) ) ;
#47 = ORIENTED_EDGE ( 'NONE', *, *, #1079, .F. ) ;
#48 = CARTESIAN_POINT ( 'NONE',  ( -3.100000000000000533, 0.0000000000000000000, 4.049999999999999822 ) ) ;
#49 = VECTOR ( 'NONE', #244, 1000.000000000000000 ) ;
#50 = MECHANICAL_DESIGN_GEOMETRIC_PRESENTATION_REPRESENTATION (  '', ( #800 ), #822 ) ;
#51 = ORIENTED_EDGE ( 'NONE', *, *, #955, .T. ) ;
#52 = CARTESIAN_POINT ( 'NONE',  ( 5.000000000000000000, 5.000000000000000000, 3.500000000087766239 ) ) ;
#53 = STYLED_ITEM ( 'NONE', ( #971 ), #566 ) ;
#54 = ORIENTED_EDGE ( 'NONE', *, *, #516, .F. ) ;
#55 = EDGE_CURVE ( 'NONE', #513, #839, #377, .T. ) ;
#56 = ORIENTED_EDGE ( 'NONE', *, *, #504, .T. ) ;
#57 = EDGE_CURVE ( 'NONE', #585, #333, #468, .T. ) ;
#58 = CARTESIAN_POINT ( 'NONE',  ( 8.499999999993633537, -5.000000000000000888, 4.000000000000113687 ) ) ;
#59 = DIRECTION ( 'NONE',  ( -1.000000000000000000, 0.0000000000000000000, 0.0000000000000000000 ) ) ;
#60 = VECTOR ( 'NONE', #406, 1000.000000000000000 ) ;
#61 = ORIENTED_EDGE ( 'NONE', *, *, #1031, .F. ) ;
#62 = STYLED_ITEM ( 'NONE', ( #71 ), #417 ) ;
#63 = ADVANCED_FACE ( 'NONE', ( #642, #811 ), #36, .F. ) ;
#64 =( LENGTH_UNIT ( ) NAMED_UNIT ( * ) SI_UNIT ( .MILLI., .METRE. ) );
#65 = DIRECTION ( 'NONE',  ( 0.0000000000000000000, 0.0000000000000000000, 1.000000000000000000 ) ) ;
#66 =( LENGTH_UNIT ( ) NAMED_UNIT ( * ) SI_UNIT ( .MILLI., .METRE. ) );
#67 = EDGE_LOOP ( 'NONE', ( #564, #464, #543, #323 ) ) ;
#68 = AXIS2_PLACEMENT_3D ( 'NONE', #605, #591, #59 ) ;
#69 = CARTESIAN_POINT ( 'NONE',  ( 5.000000000000000000, -5.000000000000000000, 3.500000000000000000 ) ) ;
#70 = DIRECTION ( 'NONE',  ( -1.000000000000000000, 0.0000000000000000000, 0.0000000000000000000 ) ) ;
#71 = PRESENTATION_STYLE_ASSIGNMENT (( #1116 ) ) ;
#72 = VERTEX_POINT ( 'NONE', #653 ) ;
#73 = DIRECTION ( 'NONE',  ( -1.000000000000000000, 0.0000000000000000000, -0.0000000000000000000 ) ) ;
#74 = ORIENTED_EDGE ( 'NONE', *, *, #1, .T. ) ;
#75 = CARTESIAN_POINT ( 'NONE',  ( -4.999999999999999112, -9.000000000017850610, 3.499999999993519406 ) ) ;
#76 = ORIENTED_EDGE ( 'NONE', *, *, #697, .F. ) ;
#77 = DIRECTION ( 'NONE',  ( -0.0000000000000000000, -0.0000000000000000000, 1.000000000000000000 ) ) ;
#78 = AXIS2_PLACEMENT_3D ( 'NONE', #769, #410, #311 ) ;
#79 =( GEOMETRIC_REPRESENTATION_CONTEXT ( 3 ) GLOBAL_UNCERTAINTY_ASSIGNED_CONTEXT ( ( #884 ) ) GLOBAL_UNIT_ASSIGNED_CONTEXT ( ( #229, #233, #153 ) ) REPRESENTATION_CONTEXT ( 'NONE', 'WORKASPACE' ) );
#80 = DIRECTION ( 'NONE',  ( -1.000000000000000000, -0.0000000000000000000, -0.0000000000000000000 ) ) ;
#81 = EDGE_LOOP ( 'NONE', ( #159, #700, #958, #365 ) ) ;
#82 = LINE ( 'NONE', #709, #602 ) ;
#83 = AXIS2_PLACEMENT_3D ( 'NONE', #626, #454, #867 ) ;
#84 = AXIS2_PLACEMENT_3D ( 'NONE', #132, #5, #1132 ) ;
#85 = ADVANCED_FACE ( 'NONE', ( #391 ), #185, .F. ) ;
#86 = DIRECTION ( 'NONE',  ( -1.000000000000000000, 0.0000000000000000000, 0.0000000000000000000 ) ) ;
#87 = CARTESIAN_POINT ( 'NONE',  ( -5.000000000000009770, 5.000000000000000000, 4.000000000019099389 ) ) ;
#88 = VERTEX_POINT ( 'NONE', #944 ) ;
#89 = DIRECTION ( 'NONE',  ( 0.0000000000000000000, 0.0000000000000000000, 1.000000000000000000 ) ) ;
#90 = EDGE_CURVE ( 'NONE', #88, #844, #138, .T. ) ;
#91 = FACE_OUTER_BOUND ( 'NONE', #39, .T. ) ;
#92 = ORIENTED_EDGE ( 'NONE', *, *, #623, .F. ) ;
#93 = VECTOR ( 'NONE', #274, 1000.000000000000000 ) ;
#94 = AXIS2_PLACEMENT_3D ( 'NONE', #248, #878, #86 ) ;
#95 =( NAMED_UNIT ( * ) SI_UNIT ( $, .STERADIAN. ) SOLID_ANGLE_UNIT ( ) );
#96 =( NAMED_UNIT ( * ) SI_UNIT ( $, .STERADIAN. ) SOLID_ANGLE_UNIT ( ) );
#97 = ADVANCED_FACE ( 'NONE', ( #678 ), #1015, .T. ) ;
#98 = ORIENTED_EDGE ( 'NONE', *, *, #1006, .T. ) ;
#99 = DIRECTION ( 'NONE',  ( -0.0000000000000000000, -1.000000000000000000, -0.0000000000000000000 ) ) ;
#100 = PRESENTATION_LAYER_ASSIGNMENT (  '', '', ( #436 ) ) ;
#101 = CIRCLE ( 'NONE', #188, 4.000000000000000888 ) ;
#102 = AXIS2_PLACEMENT_3D ( 'NONE', #139, #852, #407 ) ;
#103 = LINE ( 'NONE', #459, #6 ) ;
#104 = CARTESIAN_POINT ( 'NONE',  ( 9.000000000000007105, 5.000000000000002665, 3.500000000000000000 ) ) ;
#105 = DIRECTION ( 'NONE',  ( 0.0000000000000000000, 0.0000000000000000000, 1.000000000000000000 ) ) ;
#106 = EDGE_LOOP ( 'NONE', ( #1088, #613, #578, #309 ) ) ;
#107 =( NAMED_UNIT ( * ) SI_UNIT ( $, .STERADIAN. ) SOLID_ANGLE_UNIT ( ) );
#108 = CARTESIAN_POINT ( 'NONE',  ( 6.500000000000000888, 10.00000000000000000, 4.049999999999999822 ) ) ;
#109 = DIRECTION ( 'NONE',  ( 0.0000000000000000000, 0.0000000000000000000, 1.000000000000000000 ) ) ;
#110 = UNCERTAINTY_MEASURE_WITH_UNIT (LENGTH_MEASURE( 1.000000000000000082E-05 ), #641, 'distance_accuracy_value', 'NONE');
#111 = DIRECTION ( 'NONE',  ( 0.0000000000000000000, 0.0000000000000000000, 1.000000000000000000 ) ) ;
#112 = CARTESIAN_POINT ( 'NONE',  ( -12.50000000000000000, 9.000000000000010658, 3.500000000000000000 ) ) ;
#113 = ORIENTED_EDGE ( 'NONE', *, *, #990, .F. ) ;
#114 = CARTESIAN_POINT ( 'NONE',  ( -0.5000000000000000000, -1.469576158976823799E-16, 5.000000000000000000 ) ) ;
#115 = CARTESIAN_POINT ( 'NONE',  ( -0.6750000000000000444, 0.0000000000000000000, 0.0000000000000000000 ) ) ;
#116 = LINE ( 'NONE', #1082, #894 ) ;
#117 = COLOUR_RGB ( '',0.5176470588235293491, 0.5176470588235293491, 0.5176470588235293491 ) ;
#118 = CIRCLE ( 'NONE', #415, 1.000000000000000000 ) ;
#119 = DIRECTION ( 'NONE',  ( -1.000000000000000000, 0.0000000000000000000, 0.0000000000000000000 ) ) ;
#120 = ORIENTED_EDGE ( 'NONE', *, *, #881, .T. ) ;
#121 = CARTESIAN_POINT ( 'NONE',  ( 8.500000000000000000, 12.50000000000000000, 3.999999999999999112 ) ) ;
#122 = EDGE_CURVE ( 'NONE', #203, #645, #318, .T. ) ;
#123 = FACE_BOUND ( 'NONE', #1107, .T. ) ;
#124 =( GEOMETRIC_REPRESENTATION_CONTEXT ( 3 ) GLOBAL_UNCERTAINTY_ASSIGNED_CONTEXT ( ( #475 ) ) GLOBAL_UNIT_ASSIGNED_CONTEXT ( ( #996, #837, #202 ) ) REPRESENTATION_CONTEXT ( 'NONE', 'WORKASPACE' ) );
#125 = ORIENTED_EDGE ( 'NONE', *, *, #881, .F. ) ;
#126 = ORIENTED_EDGE ( 'NONE', *, *, #214, .F. ) ;
#127 = EDGE_CURVE ( 'NONE', #359, #723, #934, .T. ) ;
#128 = FACE_OUTER_BOUND ( 'NONE', #864, .T. ) ;
#129 = DIRECTION ( 'NONE',  ( 0.0000000000000000000, 0.0000000000000000000, -1.000000000000000000 ) ) ;
#130 = DIRECTION ( 'NONE',  ( 1.000000000000000000, 0.0000000000000000000, 0.0000000000000000000 ) ) ;
#131 = ORIENTED_EDGE ( 'NONE', *, *, #374, .F. ) ;
#132 = CARTESIAN_POINT ( 'NONE',  ( 5.000000000000000000, 5.000000000000000000, 4.000000000000000000 ) ) ;
#133 = CARTESIAN_POINT ( 'NONE',  ( -8.500000000000010658, 12.50000000000000000, 3.999999999999999112 ) ) ;
#134 = SURFACE_STYLE_FILL_AREA ( #404 ) ;
#135 = EDGE_CURVE ( 'NONE', #1101, #145, #546, .T. ) ;
#136 = AXIS2_PLACEMENT_3D ( 'NONE', #271, #561, #716 ) ;
#137 = ORIENTED_EDGE ( 'NONE', *, *, #753, .F. ) ;
#138 = LINE ( 'NONE', #510, #1095 ) ;
#139 = CARTESIAN_POINT ( 'NONE',  ( -6.500000000000000888, 10.00000000000000000, 4.049999999999999822 ) ) ;
#140 = COLOUR_RGB ( '',0.7058823529411764053, 0.6117647058823529882, 0.4705882352941176405 ) ;
#141 = ORIENTED_EDGE ( 'NONE', *, *, #1121, .F. ) ;
#142 = EDGE_CURVE ( 'NONE', #900, #227, #1106, .T. ) ;
#143 =( NAMED_UNIT ( * ) PLANE_ANGLE_UNIT ( ) SI_UNIT ( $, .RADIAN. ) );
#144 = DIRECTION ( 'NONE',  ( 0.0000000000000000000, 0.0000000000000000000, 1.000000000000000000 ) ) ;
#145 = VERTEX_POINT ( 'NONE', #748 ) ;
#146 = EDGE_CURVE ( 'NONE', #333, #998, #589, .T. ) ;
#147 = DIRECTION ( 'NONE',  ( -1.000000000000000000, 0.0000000000000000000, 0.0000000000000000000 ) ) ;
#148 = SURFACE_SIDE_STYLE ('',( #598 ) ) ;
#149 = ORIENTED_EDGE ( 'NONE', *, *, #990, .T. ) ;
#150 = AXIS2_PLACEMENT_3D ( 'NONE', #420, #766, #518 ) ;
#151 = CARTESIAN_POINT ( 'NONE',  ( -5.000000000000000888, -8.500000000007844392, 3.999999999997839506 ) ) ;
#152 = CARTESIAN_POINT ( 'NONE',  ( -12.50000000000000000, -9.000000000000010658, 0.0000000000000000000 ) ) ;
#153 =( NAMED_UNIT ( * ) SI_UNIT ( $, .STERADIAN. ) SOLID_ANGLE_UNIT ( ) );
#154 = UNCERTAINTY_MEASURE_WITH_UNIT (LENGTH_MEASURE( 1.000000000000000082E-05 ), #441, 'distance_accuracy_value', 'NONE');
#155 = EDGE_LOOP ( 'NONE', ( #74, #757, #525, #1056 ) ) ;
#156 = AXIS2_PLACEMENT_3D ( 'NONE', #217, #843, #1016 ) ;
#157 = ORIENTED_EDGE ( 'NONE', *, *, #964, .T. ) ;
#158 = FACE_OUTER_BOUND ( 'NONE', #1020, .T. ) ;
#159 = ORIENTED_EDGE ( 'NONE', *, *, #127, .F. ) ;
#160 = CARTESIAN_POINT ( 'NONE',  ( 6.500000000000002665, 12.50000000000000000, 4.000000000000000000 ) ) ;
#161 = FILL_AREA_STYLE ('',( #1124 ) ) ;
#162 = VERTEX_POINT ( 'NONE', #151 ) ;
#163 = LINE ( 'NONE', #160, #499 ) ;
#164 = ADVANCED_FACE ( 'NONE', ( #324 ), #682, .T. ) ;
#165 = MECHANICAL_DESIGN_GEOMETRIC_PRESENTATION_REPRESENTATION (  '', ( #221 ), #671 ) ;
#166 = CARTESIAN_POINT ( 'NONE',  ( -1.525000000000000133, 5.204748896376250083E-17, 0.0000000000000000000 ) ) ;
#167 = ORIENTED_EDGE ( 'NONE', *, *, #943, .T. ) ;
#168 = DIRECTION ( 'NONE',  ( 0.0000000000000000000, 0.0000000000000000000, -1.000000000000000000 ) ) ;
#169 = EDGE_CURVE ( 'NONE', #851, #991, #27, .T. ) ;
#170 = VECTOR ( 'NONE', #512, 1000.000000000000000 ) ;
#171 =( GEOMETRIC_REPRESENTATION_CONTEXT ( 3 ) GLOBAL_UNCERTAINTY_ASSIGNED_CONTEXT ( ( #1093 ) ) GLOBAL_UNIT_ASSIGNED_CONTEXT ( ( #225, #580, #945 ) ) REPRESENTATION_CONTEXT ( 'NONE', 'WORKASPACE' ) );
#172 =( NAMED_UNIT ( * ) PLANE_ANGLE_UNIT ( ) SI_UNIT ( $, .RADIAN. ) );
#173 =( NAMED_UNIT ( * ) PLANE_ANGLE_UNIT ( ) SI_UNIT ( $, .RADIAN. ) );
#174 = VERTEX_POINT ( 'NONE', #608 ) ;
#175 =( NAMED_UNIT ( * ) PLANE_ANGLE_UNIT ( ) SI_UNIT ( $, .RADIAN. ) );
#176 = CARTESIAN_POINT ( 'NONE',  ( -1.100000000000000089, 0.0000000000000000000, 4.049999999999999822 ) ) ;
#177 = VERTEX_POINT ( 'NONE', #166 ) ;
#178 = DIRECTION ( 'NONE',  ( 0.0000000000000000000, 1.000000000000000000, 0.0000000000000000000 ) ) ;
#179 = CARTESIAN_POINT ( 'NONE',  ( -1.100000000000000089, 0.0000000000000000000, -3.000000000000000000 ) ) ;
#180 = MECHANICAL_DESIGN_GEOMETRIC_PRESENTATION_REPRESENTATION (  '', ( #545 ), #634 ) ;
#181 = COLOUR_RGB ( '',0.5176470588235293491, 0.5176470588235293491, 0.5176470588235293491 ) ;
#182 = PRODUCT ( 'EA36F425-1501-4C9F-994F-4B9E85C4B4AF', 'EA36F425-1501-4C9F-994F-4B9E85C4B4AF', '', ( #957 ) ) ;
#183 =( NAMED_UNIT ( * ) SI_UNIT ( $, .STERADIAN. ) SOLID_ANGLE_UNIT ( ) );
#184 = SURFACE_SIDE_STYLE ('',( #729 ) ) ;
#185 = PLANE ( 'NONE',  #78 ) ;
#186 = DIRECTION ( 'NONE',  ( 0.0000000000000000000, 0.7071067811865475727, -0.7071067811865475727 ) ) ;
#187 = AXIS2_PLACEMENT_3D ( 'NONE', #741, #109, #575 ) ;
#188 = AXIS2_PLACEMENT_3D ( 'NONE', #791, #796, #431 ) ;
#189 = DIRECTION ( 'NONE',  ( 0.0000000000000000000, -1.000000000000000000, 0.0000000000000000000 ) ) ;
#190 = DIRECTION ( 'NONE',  ( -1.000000000000000000, -8.673617379884040402E-17, -0.0000000000000000000 ) ) ;
#191 = LINE ( 'NONE', #986, #664 ) ;
#192 = ORIENTED_EDGE ( 'NONE', *, *, #673, .F. ) ;
#193 =( NAMED_UNIT ( * ) SI_UNIT ( $, .STERADIAN. ) SOLID_ANGLE_UNIT ( ) );
#194 = PLANE ( 'NONE',  #200 ) ;
#195 = DIRECTION ( 'NONE',  ( 0.0000000000000000000, -0.0000000000000000000, -1.000000000000000000 ) ) ;
#196 = ORIENTED_EDGE ( 'NONE', *, *, #1109, .T. ) ;
#197 = ADVANCED_FACE ( 'NONE', ( #617 ), #434, .F. ) ;
#198 = CARTESIAN_POINT ( 'NONE',  ( -6.500000000000000888, -6.500000000000001776, 4.000000000000000000 ) ) ;
#199 = CARTESIAN_POINT ( 'NONE',  ( -12.50000000000000000, 12.50000000000000000, 0.0000000000000000000 ) ) ;
#200 = AXIS2_PLACEMENT_3D ( 'NONE', #108, #721, #652 ) ;
#201 = ORIENTED_EDGE ( 'NONE', *, *, #374, .T. ) ;
#202 =( NAMED_UNIT ( * ) SI_UNIT ( $, .STERADIAN. ) SOLID_ANGLE_UNIT ( ) );
#203 = VERTEX_POINT ( 'NONE', #710 ) ;
#204 = DIRECTION ( 'NONE',  ( 0.7071067811865489050, -0.0000000000000000000, -0.7071067811865460184 ) ) ;
#205 = EDGE_CURVE ( 'NONE', #359, #1101, #521, .T. ) ;
#206 = DIRECTION ( 'NONE',  ( -1.000000000000000000, 0.0000000000000000000, 0.0000000000000000000 ) ) ;
#207 = VECTOR ( 'NONE', #204, 1000.000000000000114 ) ;
#208 = CARTESIAN_POINT ( 'NONE',  ( -9.000000000032063241, -5.000000000000000000, 3.499999999979308551 ) ) ;
#209 = CIRCLE ( 'NONE', #279, 2.000000000000000000 ) ;
#210 = FILL_AREA_STYLE ('',( #1009 ) ) ;
#211 = DIRECTION ( 'NONE',  ( -0.0000000000000000000, -0.0000000000000000000, 1.000000000000000000 ) ) ;
#212 = UNCERTAINTY_MEASURE_WITH_UNIT (LENGTH_MEASURE( 1.000000000000000082E-05 ), #397, 'distance_accuracy_value', 'NONE');
#213 = ORIENTED_EDGE ( 'NONE', *, *, #335, .F. ) ;
#214 = EDGE_CURVE ( 'NONE', #675, #627, #762, .T. ) ;
#215 = FACE_OUTER_BOUND ( 'NONE', #833, .T. ) ;
#216 = SURFACE_SIDE_STYLE ('',( #1028 ) ) ;
#217 = CARTESIAN_POINT ( 'NONE',  ( -5.000000000000000000, -5.000000000000000000, 3.999999999957707608 ) ) ;
#218 = ORIENTED_EDGE ( 'NONE', *, *, #870, .F. ) ;
#219 = ADVANCED_FACE ( 'NONE', ( #91 ), #625, .F. ) ;
#220 = CARTESIAN_POINT ( 'NONE',  ( 5.000000000000000000, -5.000000000000000000, 3.999999999962255970 ) ) ;
#221 = STYLED_ITEM ( 'NONE', ( #698 ), #197 ) ;
#222 = ORIENTED_EDGE ( 'NONE', *, *, #433, .T. ) ;
#223 = TOROIDAL_SURFACE ( 'NONE', #362, 0.5999999999999999778, 1.000000000000000000 ) ;
#224 = FILL_AREA_STYLE ('',( #669 ) ) ;
#225 =( LENGTH_UNIT ( ) NAMED_UNIT ( * ) SI_UNIT ( .MILLI., .METRE. ) );
#226 = AXIS2_PLACEMENT_3D ( 'NONE', #826, #186, #37 ) ;
#227 = VERTEX_POINT ( 'NONE', #357 ) ;
#228 = LINE ( 'NONE', #325, #38 ) ;
#229 =( LENGTH_UNIT ( ) NAMED_UNIT ( * ) SI_UNIT ( .MILLI., .METRE. ) );
#230 = ORIENTED_EDGE ( 'NONE', *, *, #400, .T. ) ;
#231 = EDGE_CURVE ( 'NONE', #1077, #310, #1122, .T. ) ;
#232 =( NAMED_UNIT ( * ) SI_UNIT ( $, .STERADIAN. ) SOLID_ANGLE_UNIT ( ) );
#233 =( NAMED_UNIT ( * ) PLANE_ANGLE_UNIT ( ) SI_UNIT ( $, .RADIAN. ) );
#234 = CIRCLE ( 'NONE', #1051, 1.599999999999999867 ) ;
#235 = MECHANICAL_DESIGN_GEOMETRIC_PRESENTATION_REPRESENTATION (  '', ( #1108 ), #635 ) ;
#236 = ORIENTED_EDGE ( 'NONE', *, *, #681, .T. ) ;
#237 = STYLED_ITEM ( 'NONE', ( #901 ), #351 ) ;
#238 = LINE ( 'NONE', #691, #49 ) ;
#239 = AXIS2_PLACEMENT_3D ( 'NONE', #1092, #830, #908 ) ;
#240 = VERTEX_POINT ( 'NONE', #527 ) ;
#241 = AXIS2_PLACEMENT_3D ( 'NONE', #1126, #526, #544 ) ;
#242 = VECTOR ( 'NONE', #1103, 1000.000000000000000 ) ;
#243 = ADVANCED_FACE ( 'NONE', ( #702 ), #447, .T. ) ;
#244 = DIRECTION ( 'NONE',  ( 1.000000000000000000, 1.734723475976810053E-16, -0.0000000000000000000 ) ) ;
#245 = DIRECTION ( 'NONE',  ( -1.298934084353234136E-16, 0.7071067811865444641, 0.7071067811865505703 ) ) ;
#246 = ORIENTED_EDGE ( 'NONE', *, *, #282, .T. ) ;
#247 = CARTESIAN_POINT ( 'NONE',  ( 6.500000000000001776, -6.500000000000001776, 4.000000000000000000 ) ) ;
#248 = CARTESIAN_POINT ( 'NONE',  ( -1.100000000000000089, 0.0000000000000000000, 4.049999999999999822 ) ) ;
#249 = EDGE_CURVE ( 'NONE', #359, #333, #890, .T. ) ;
#250 = ORIENTED_EDGE ( 'NONE', *, *, #974, .F. ) ;
#251 = CARTESIAN_POINT ( 'NONE',  ( -9.000000000000007105, -5.000000000000000000, 0.0000000000000000000 ) ) ;
#252 = AXIS2_PLACEMENT_3D ( 'NONE', #176, #651, #540 ) ;
#253 =( NAMED_UNIT ( * ) PLANE_ANGLE_UNIT ( ) SI_UNIT ( $, .RADIAN. ) );
#254 = APPLICATION_PROTOCOL_DEFINITION ( 'draft international standard', 'automotive_design', 1998, #785 ) ;
#255 = CARTESIAN_POINT ( 'NONE',  ( -1.100000000000000089, 0.0000000000000000000, 4.000000000000000000 ) ) ;
#256 = ORIENTED_EDGE ( 'NONE', *, *, #282, .F. ) ;
#257 = CARTESIAN_POINT ( 'NONE',  ( -5.000000000000009770, 5.000000000000000000, 0.0000000000000000000 ) ) ;
#258 = VECTOR ( 'NONE', #951, 1000.000000000000000 ) ;
#259 = EDGE_CURVE ( 'NONE', #585, #680, #473, .T. ) ;
#260 = FILL_AREA_STYLE ('',( #814 ) ) ;
#261 = AXIS2_PLACEMENT_3D ( 'NONE', #52, #304, #665 ) ;
#262 = AXIS2_PLACEMENT_3D ( 'NONE', #969, #703, #442 ) ;
#263 = SURFACE_STYLE_FILL_AREA ( #968 ) ;
#264 = VERTEX_POINT ( 'NONE', #686 ) ;
#265 = SURFACE_STYLE_USAGE ( .BOTH. , #720 ) ;
#266 = EDGE_CURVE ( 'NONE', #430, #928, #238, .T. ) ;
#267 = SURFACE_STYLE_USAGE ( .BOTH. , #734 ) ;
#268 = CARTESIAN_POINT ( 'NONE',  ( 0.9000000000000000222, 2.449293598294706414E-16, 4.049999999999999822 ) ) ;
#269 = DIRECTION ( 'NONE',  ( 0.0000000000000000000, 0.0000000000000000000, -1.000000000000000000 ) ) ;
#270 = LINE ( 'NONE', #812, #768 ) ;
#271 = CARTESIAN_POINT ( 'NONE',  ( -1.100000000000000089, 0.0000000000000000000, 4.000000000000000000 ) ) ;
#272 = DIRECTION ( 'NONE',  ( 0.0000000000000000000, 0.0000000000000000000, 1.000000000000000000 ) ) ;
#273 = CARTESIAN_POINT ( 'NONE',  ( -1.525000000000000133, 5.204748896376250083E-17, -3.000000000000000000 ) ) ;
#274 = DIRECTION ( 'NONE',  ( 1.000000000000000000, 0.0000000000000000000, -0.0000000000000000000 ) ) ;
#275 = DIRECTION ( 'NONE',  ( -0.0000000000000000000, -0.0000000000000000000, 1.000000000000000000 ) ) ;
#276 = ORIENTED_EDGE ( 'NONE', *, *, #829, .F. ) ;
#277 = FILL_AREA_STYLE_COLOUR ( '', #779 ) ;
#278 = MECHANICAL_DESIGN_GEOMETRIC_PRESENTATION_REPRESENTATION (  '', ( #436 ), #953 ) ;
#279 = AXIS2_PLACEMENT_3D ( 'NONE', #660, #275, #119 ) ;
#280 = COLOUR_RGB ( '',0.7058823529411764053, 0.6117647058823529882, 0.4705882352941176405 ) ;
#281 = FACE_OUTER_BOUND ( 'NONE', #713, .T. ) ;
#282 = EDGE_CURVE ( 'NONE', #293, #430, #603, .T. ) ;
#283 = CARTESIAN_POINT ( 'NONE',  ( -1.100000000000000089, 0.0000000000000000000, 4.000000000000000000 ) ) ;
#284 = FACE_OUTER_BOUND ( 'NONE', #327, .T. ) ;
#285 = ORIENTED_EDGE ( 'NONE', *, *, #930, .T. ) ;
#286 = CYLINDRICAL_SURFACE ( 'NONE', #252, 2.000000000000000000 ) ;
#287 =( NAMED_UNIT ( * ) PLANE_ANGLE_UNIT ( ) SI_UNIT ( $, .RADIAN. ) );
#288 = PLANE ( 'NONE',  #732 ) ;
#289 = PRODUCT_DEFINITION_CONTEXT ( 'detailed design', #785, 'design' ) ;
#290 = EDGE_LOOP ( 'NONE', ( #1017, #408 ) ) ;
#291 = CARTESIAN_POINT ( 'NONE',  ( -4.999999999999999112, -9.000000000000001776, 4.000000000000000000 ) ) ;
#292 = ADVANCED_FACE ( 'NONE', ( #1091, #123 ), #824, .F. ) ;
#293 = VERTEX_POINT ( 'NONE', #198 ) ;
#294 = VECTOR ( 'NONE', #1024, 1000.000000000000000 ) ;
#295 =( NAMED_UNIT ( * ) PLANE_ANGLE_UNIT ( ) SI_UNIT ( $, .RADIAN. ) );
#296 = CARTESIAN_POINT ( 'NONE',  ( -0.6750000000000000444, 0.0000000000000000000, -3.000000000000000000 ) ) ;
#297 = MECHANICAL_DESIGN_GEOMETRIC_PRESENTATION_REPRESENTATION (  '', ( #237 ), #637 ) ;
#298 =( NAMED_UNIT ( * ) PLANE_ANGLE_UNIT ( ) SI_UNIT ( $, .RADIAN. ) );
#299 = CARTESIAN_POINT ( 'NONE',  ( 9.000000000000001776, -4.999999999999999112, 4.000000000000000000 ) ) ;
#300 = ORIENTED_EDGE ( 'NONE', *, *, #335, .T. ) ;
#301 = ADVANCED_FACE ( 'NONE', ( #1080 ), #194, .F. ) ;
#302 =( GEOMETRIC_REPRESENTATION_CONTEXT ( 3 ) GLOBAL_UNCERTAINTY_ASSIGNED_CONTEXT ( ( #980 ) ) GLOBAL_UNIT_ASSIGNED_CONTEXT ( ( #66, #1097, #1090 ) ) REPRESENTATION_CONTEXT ( 'NONE', 'WORKASPACE' ) );
#303 = STYLED_ITEM ( 'NONE', ( #506 ), #1072 ) ;
#304 = DIRECTION ( 'NONE',  ( 0.0000000000000000000, 0.0000000000000000000, -1.000000000000000000 ) ) ;
#305 = SURFACE_SIDE_STYLE ('',( #134 ) ) ;
#306 = ORIENTED_EDGE ( 'NONE', *, *, #549, .T. ) ;
#307 = CARTESIAN_POINT ( 'NONE',  ( -2.600000000000000533, 0.0000000000000000000, -3.000000000000000000 ) ) ;
#308 = CARTESIAN_POINT ( 'NONE',  ( 5.000000000000000000, 5.000000000000000000, 0.0000000000000000000 ) ) ;
#309 = ORIENTED_EDGE ( 'NONE', *, *, #41, .T. ) ;
#310 = VERTEX_POINT ( 'NONE', #1073 ) ;
#311 = DIRECTION ( 'NONE',  ( -1.000000000000000000, -1.734723475976810053E-16, 0.0000000000000000000 ) ) ;
#312 = APPLICATION_PROTOCOL_DEFINITION ( 'draft international standard', 'automotive_design', 1998, #1023 ) ;
#313 = AXIS2_PLACEMENT_3D ( 'NONE', #426, #956, #778 ) ;
#314 = CARTESIAN_POINT ( 'NONE',  ( 6.500000000000001776, 6.500000000000000888, 4.049999999999999822 ) ) ;
#315 = AXIS2_PLACEMENT_3D ( 'NONE', #384, #658, #206 ) ;
#316 = VERTEX_POINT ( 'NONE', #115 ) ;
#317 = COLOUR_RGB ( '',0.5176470588235293491, 0.5176470588235293491, 0.5176470588235293491 ) ;
#318 = LINE ( 'NONE', #133, #725 ) ;
#319 = CARTESIAN_POINT ( 'NONE',  ( 5.000000000000000888, 8.499999999993637090, 4.000000000000113687 ) ) ;
#320 = DIRECTION ( 'NONE',  ( -1.000000000000000000, 0.0000000000000000000, 0.0000000000000000000 ) ) ;
#321 = CIRCLE ( 'NONE', #922, 0.4250000000000000444 ) ;
#322 = ADVANCED_FACE ( 'NONE', ( #376 ), #616, .T. ) ;
#323 = ORIENTED_EDGE ( 'NONE', *, *, #259, .F. ) ;
#324 = FACE_OUTER_BOUND ( 'NONE', #606, .T. ) ;
#325 = CARTESIAN_POINT ( 'NONE',  ( -1.525000000000000133, 5.204748896376250699E-17, -3.000000000000000000 ) ) ;
#326 = DIRECTION ( 'NONE',  ( 0.0000000000000000000, 0.0000000000000000000, -1.000000000000000000 ) ) ;
#327 = EDGE_LOOP ( 'NONE', ( #960, #346, #192, #54 ) ) ;
#328 = ADVANCED_FACE ( 'NONE', ( #728 ), #646, .T. ) ;
#329 = DIRECTION ( 'NONE',  ( 0.0000000000000000000, 0.0000000000000000000, -1.000000000000000000 ) ) ;
#330 = ORIENTED_EDGE ( 'NONE', *, *, #784, .F. ) ;
#331 = FACE_OUTER_BOUND ( 'NONE', #155, .T. ) ;
#332 = AXIS2_PLACEMENT_3D ( 'NONE', #220, #583, #147 ) ;
#333 = VERTEX_POINT ( 'NONE', #1067 ) ;
#334 = CIRCLE ( 'NONE', #136, 2.000000000000000000 ) ;
#335 = EDGE_CURVE ( 'NONE', #227, #430, #103, .T. ) ;
#336 = SURFACE_STYLE_USAGE ( .BOTH. , #427 ) ;
#337 = ORIENTED_EDGE ( 'NONE', *, *, #974, .T. ) ;
#338 = PLANE ( 'NONE',  #83 ) ;
#339 = VECTOR ( 'NONE', #924, 1000.000000000000114 ) ;
#340 = ORIENTED_EDGE ( 'NONE', *, *, #508, .F. ) ;
#341 = CARTESIAN_POINT ( 'NONE',  ( 9.000000000000010658, -12.50000000000000000, 4.000000000000000000 ) ) ;
#342 = AXIS2_PLACEMENT_3D ( 'NONE', #961, #874, #450 ) ;
#343 = EDGE_CURVE ( 'NONE', #533, #839, #672, .T. ) ;
#344 = DIRECTION ( 'NONE',  ( 1.224646799147353207E-16, 1.000000000000000000, -0.0000000000000000000 ) ) ;
#345 = DIRECTION ( 'NONE',  ( 0.0000000000000000000, 0.0000000000000000000, 1.000000000000000000 ) ) ;
#346 = ORIENTED_EDGE ( 'NONE', *, *, #681, .F. ) ;
#347 = FACE_OUTER_BOUND ( 'NONE', #81, .T. ) ;
#348 = SURFACE_SIDE_STYLE ('',( #263 ) ) ;
#349 = PRESENTATION_STYLE_ASSIGNMENT (( #336 ) ) ;
#350 = CARTESIAN_POINT ( 'NONE',  ( 8.500000000000000000, 12.50000000000000000, 4.000000000000000000 ) ) ;
#351 = ADVANCED_FACE ( 'NONE', ( #821 ), #727, .T. ) ;
#352 = ORIENTED_EDGE ( 'NONE', *, *, #504, .F. ) ;
#353 = SURFACE_SIDE_STYLE ('',( #719 ) ) ;
#354 = VECTOR ( 'NONE', #111, 1000.000000000000000 ) ;
#355 = COLOUR_RGB ( '',0.5176470588235293491, 0.5176470588235293491, 0.5176470588235293491 ) ;
#356 = DIRECTION ( 'NONE',  ( 0.0000000000000000000, 0.0000000000000000000, -1.000000000000000000 ) ) ;
#357 = CARTESIAN_POINT ( 'NONE',  ( -6.500000000000000888, 6.500000000000000000, 4.049999999999999822 ) ) ;
#358 = SURFACE_STYLE_USAGE ( .BOTH. , #889 ) ;
#359 = VERTEX_POINT ( 'NONE', #367 ) ;
#360 = DIRECTION ( 'NONE',  ( 1.387778780781450113E-16, -1.000000000000000000, 0.0000000000000000000 ) ) ;
#361 = AXIS2_PLACEMENT_3D ( 'NONE', #385, #735, #1087 ) ;
#362 = AXIS2_PLACEMENT_3D ( 'NONE', #44, #144, #789 ) ;
#363 = DIRECTION ( 'NONE',  ( 1.000000000000000000, 0.0000000000000000000, 0.0000000000000000000 ) ) ;
#364 = DIRECTION ( 'NONE',  ( -0.7071067811865444641, -0.0000000000000000000, -0.7071067811865505703 ) ) ;
#365 = ORIENTED_EDGE ( 'NONE', *, *, #541, .F. ) ;
#366 = FILL_AREA_STYLE_COLOUR ( '', #807 ) ;
#367 = CARTESIAN_POINT ( 'NONE',  ( 8.999999999989428900, -4.999999999999999112, 3.500000000021941116 ) ) ;
#368 = SURFACE_STYLE_FILL_AREA ( #19 ) ;
#369 = LINE ( 'NONE', #841, #514 ) ;
#370 = ORIENTED_EDGE ( 'NONE', *, *, #753, .T. ) ;
#371 =( LENGTH_UNIT ( ) NAMED_UNIT ( * ) SI_UNIT ( .MILLI., .METRE. ) );
#372 = CLOSED_SHELL ( 'NONE', ( #328, #197, #488, #706, #425, #923, #243, #764, #758, #668, #97, #685, #351, #322, #997, #615, #524, #743, #219, #1118, #409, #164, #292, #301, #85, #1072, #566, #417, #392, #63, #596, #888 ) ) ;
#373 = STYLED_ITEM ( 'NONE', ( #815 ), #301 ) ;
#374 = EDGE_CURVE ( 'NONE', #839, #533, #334, .T. ) ;
#375 =( GEOMETRIC_REPRESENTATION_CONTEXT ( 3 ) GLOBAL_UNCERTAINTY_ASSIGNED_CONTEXT ( ( #909 ) ) GLOBAL_UNIT_ASSIGNED_CONTEXT ( ( #40, #295, #95 ) ) REPRESENTATION_CONTEXT ( 'NONE', 'WORKASPACE' ) );
#376 = FACE_OUTER_BOUND ( 'NONE', #67, .T. ) ;
#377 = LINE ( 'NONE', #910, #451 ) ;
#378 = CARTESIAN_POINT ( 'NONE',  ( 9.000000000000001776, 12.50000000000000000, 0.0000000000000000000 ) ) ;
#379 = ORIENTED_EDGE ( 'NONE', *, *, #915, .T. ) ;
#380 = DIRECTION ( 'NONE',  ( 1.000000000000000000, 0.0000000000000000000, 0.0000000000000000000 ) ) ;
#381 = COLOUR_RGB ( '',0.5176470588235293491, 0.5176470588235293491, 0.5176470588235293491 ) ;
#382 = STYLED_ITEM ( 'NONE', ( #714 ), #888 ) ;
#383 = EDGE_CURVE ( 'NONE', #900, #293, #636, .T. ) ;
#384 = CARTESIAN_POINT ( 'NONE',  ( -5.000000000000000000, -5.000000000000000000, 3.499999999917235982 ) ) ;
#385 = CARTESIAN_POINT ( 'NONE',  ( -9.000000000000010658, -12.50000000000000000, 4.000000000000000000 ) ) ;
#386 = DIRECTION ( 'NONE',  ( -1.000000000000000000, 0.0000000000000000000, 0.0000000000000000000 ) ) ;
#387 = CARTESIAN_POINT ( 'NONE',  ( -1.700000000000000178, 1.347111479062088503E-16, 5.000000000000000000 ) ) ;
#388 = EDGE_LOOP ( 'NONE', ( #1026, #993, #256, #522 ) ) ;
#389 = VERTEX_POINT ( 'NONE', #114 ) ;
#390 = UNCERTAINTY_MEASURE_WITH_UNIT (LENGTH_MEASURE( 1.000000000000000082E-05 ), #799, 'distance_accuracy_value', 'NONE');
#391 = FACE_OUTER_BOUND ( 'NONE', #388, .T. ) ;
#392 = ADVANCED_FACE ( 'NONE', ( #1059 ), #286, .F. ) ;
#393 = EDGE_LOOP ( 'NONE', ( #853, #120, #437, #1012, #947, #196, #942, #744 ) ) ;
#394 = AXIS2_PLACEMENT_3D ( 'NONE', #69, #423, #773 ) ;
#395 = CARTESIAN_POINT ( 'NONE',  ( -12.50000000000000000, 6.500000000000000888, 4.000000000000000000 ) ) ;
#396 = PRESENTATION_LAYER_ASSIGNMENT (  '', '', ( #800 ) ) ;
#397 =( LENGTH_UNIT ( ) NAMED_UNIT ( * ) SI_UNIT ( .MILLI., .METRE. ) );
#398 = SURFACE_STYLE_USAGE ( .BOTH. , #926 ) ;
#399 = ORIENTED_EDGE ( 'NONE', *, *, #1006, .F. ) ;
#400 = EDGE_CURVE ( 'NONE', #264, #389, #118, .T. ) ;
#401 = PRESENTATION_LAYER_ASSIGNMENT (  '', '', ( #479 ) ) ;
#402 = VECTOR ( 'NONE', #211, 1000.000000000000000 ) ;
#403 = CARTESIAN_POINT ( 'NONE',  ( 5.000000000000000000, 5.000000000000000000, 3.999999999962255970 ) ) ;
#404 = FILL_AREA_STYLE ('',( #590 ) ) ;
#405 = ORIENTED_EDGE ( 'NONE', *, *, #906, .F. ) ;
#406 = DIRECTION ( 'NONE',  ( -0.0000000000000000000, 0.0000000000000000000, -1.000000000000000000 ) ) ;
#407 = DIRECTION ( 'NONE',  ( 0.0000000000000000000, 0.0000000000000000000, -1.000000000000000000 ) ) ;
#408 = ORIENTED_EDGE ( 'NONE', *, *, #549, .F. ) ;
#409 = ADVANCED_FACE ( 'NONE', ( #624 ), #887, .F. ) ;
#410 = DIRECTION ( 'NONE',  ( -1.734723475976810053E-16, 1.000000000000000000, 0.0000000000000000000 ) ) ;
#411 = DIRECTION ( 'NONE',  ( -1.000000000000000000, 0.0000000000000000000, -0.0000000000000000000 ) ) ;
#412 = PRESENTATION_LAYER_ASSIGNMENT (  '', '', ( #373 ) ) ;
#413 = ORIENTED_EDGE ( 'NONE', *, *, #856, .F. ) ;
#414 = FILL_AREA_STYLE_COLOUR ( '', #567 ) ;
#415 = AXIS2_PLACEMENT_3D ( 'NONE', #446, #797, #356 ) ;
#416 = ORIENTED_EDGE ( 'NONE', *, *, #483, .F. ) ;
#417 = ADVANCED_FACE ( 'NONE', ( #1066, #863 ), #679, .F. ) ;
#418 = PRESENTATION_STYLE_ASSIGNMENT (( #489 ) ) ;
#419 = DIRECTION ( 'NONE',  ( 1.000000000000000000, 0.0000000000000000000, 0.0000000000000000000 ) ) ;
#420 = CARTESIAN_POINT ( 'NONE',  ( 10.00000000000000000, -10.00000000000000000, 4.049999999999999822 ) ) ;
#421 = VECTOR ( 'NONE', #577, 1000.000000000000000 ) ;
#422 = EDGE_LOOP ( 'NONE', ( #520, #276, #56, #1005 ) ) ;
#423 = DIRECTION ( 'NONE',  ( 0.0000000000000000000, 0.0000000000000000000, -1.000000000000000000 ) ) ;
#424 = ORIENTED_EDGE ( 'NONE', *, *, #736, .T. ) ;
#425 = ADVANCED_FACE ( 'NONE', ( #1039 ), #656, .T. ) ;
#426 = CARTESIAN_POINT ( 'NONE',  ( -12.50000000000000000, 8.500000000000010658, 4.000000000000000000 ) ) ;
#427 = SURFACE_SIDE_STYLE ('',( #1129 ) ) ;
#428 = ORIENTED_EDGE ( 'NONE', *, *, #142, .F. ) ;
#429 = COLOUR_RGB ( '',0.0000000000000000000, 0.5176470588235293491, 0.5176470588235293491 ) ;
#430 = VERTEX_POINT ( 'NONE', #1033 ) ;
#431 = DIRECTION ( 'NONE',  ( -1.000000000000000000, 0.0000000000000000000, 0.0000000000000000000 ) ) ;
#432 = MECHANICAL_DESIGN_GEOMETRIC_PRESENTATION_REPRESENTATION (  '', ( #531 ), #375 ) ;
#433 = EDGE_CURVE ( 'NONE', #662, #723, #775, .T. ) ;
#434 = CYLINDRICAL_SURFACE ( 'NONE', #94, 2.000000000000000000 ) ;
#435 = LINE ( 'NONE', #1130, #457 ) ;
#436 = STYLED_ITEM ( 'NONE', ( #467 ), #596 ) ;
#437 = ORIENTED_EDGE ( 'NONE', *, *, #697, .T. ) ;
#438 = CARTESIAN_POINT ( 'NONE',  ( -2.700000000000000178, 1.959434878635764737E-16, 4.000000000000000000 ) ) ;
#439 = VECTOR ( 'NONE', #731, 1000.000000000000000 ) ;
#440 = AXIS2_PLACEMENT_3D ( 'NONE', #857, #65, #419 ) ;
#441 =( LENGTH_UNIT ( ) NAMED_UNIT ( * ) SI_UNIT ( .MILLI., .METRE. ) );
#442 = DIRECTION ( 'NONE',  ( 1.000000000000000000, 0.0000000000000000000, 0.0000000000000000000 ) ) ;
#443 = CARTESIAN_POINT ( 'NONE',  ( -4.999999999908337323, -499000.0000000000000, -498987.5000000042492 ) ) ;
#444 = ORIENTED_EDGE ( 'NONE', *, *, #629, .T. ) ;
#445 = CARTESIAN_POINT ( 'NONE',  ( -1.100000000000000089, 0.0000000000000000000, -3.000000000000000000 ) ) ;
#446 = CARTESIAN_POINT ( 'NONE',  ( -0.5000000000000001110, 0.0000000000000000000, 4.000000000000000000 ) ) ;
#447 = CYLINDRICAL_SURFACE ( 'NONE', #871, 4.000000000000000000 ) ;
#448 = CARTESIAN_POINT ( 'NONE',  ( -3.100000000000000533, 0.0000000000000000000, 4.000000000000000000 ) ) ;
#449 = ORIENTED_EDGE ( 'NONE', *, *, #146, .F. ) ;
#450 = DIRECTION ( 'NONE',  ( -1.000000000000000000, 0.0000000000000000000, 0.0000000000000000000 ) ) ;
#451 = VECTOR ( 'NONE', #269, 1000.000000000000000 ) ;
#452 = AXIS2_PLACEMENT_3D ( 'NONE', #307, #1102, #73 ) ;
#453 = CARTESIAN_POINT ( 'NONE',  ( -8.500000000000010658, 12.50000000000000000, 4.000000000000000000 ) ) ;
#454 = DIRECTION ( 'NONE',  ( 8.673617379884040402E-17, -1.000000000000000000, 0.0000000000000000000 ) ) ;
#455 = ORIENTED_EDGE ( 'NONE', *, *, #17, .F. ) ;
#456 = CARTESIAN_POINT ( 'NONE',  ( -6.500000000000000888, 6.500000000000000000, 4.000000000000000000 ) ) ;
#457 = VECTOR ( 'NONE', #704, 1000.000000000000000 ) ;
#458 = SURFACE_STYLE_FILL_AREA ( #260 ) ;
#459 = CARTESIAN_POINT ( 'NONE',  ( -6.500000000000000888, 10.00000000000000000, 4.049999999999999822 ) ) ;
#460 = LINE ( 'NONE', #563, #573 ) ;
#461 = UNCERTAINTY_MEASURE_WITH_UNIT (LENGTH_MEASURE( 1.000000000000000082E-05 ), #502, 'distance_accuracy_value', 'NONE');
#462 = EDGE_LOOP ( 'NONE', ( #952, #306, #230, #157 ) ) ;
#463 = DIRECTION ( 'NONE',  ( 0.0000000000000000000, 1.000000000000000000, 0.0000000000000000000 ) ) ;
#464 = ORIENTED_EDGE ( 'NONE', *, *, #1058, .T. ) ;
#465 = EDGE_CURVE ( 'NONE', #1086, #998, #712, .T. ) ;
#466 = SURFACE_SIDE_STYLE ('',( #368 ) ) ;
#467 = PRESENTATION_STYLE_ASSIGNMENT (( #995 ) ) ;
#468 = LINE ( 'NONE', #632, #93 ) ;
#469 = DIRECTION ( 'NONE',  ( 1.000000000000000000, -0.0000000000000000000, 0.0000000000000000000 ) ) ;
#470 = ORIENTED_EDGE ( 'NONE', *, *, #629, .F. ) ;
#471 = CARTESIAN_POINT ( 'NONE',  ( -6.500000000000000888, 12.50000000000000000, 4.000000000000000000 ) ) ;
#472 = EDGE_CURVE ( 'NONE', #553, #1045, #941, .T. ) ;
#473 = CIRCLE ( 'NONE', #1036, 4.000000000000000888 ) ;
#474 = SURFACE_STYLE_FILL_AREA ( #568 ) ;
#475 = UNCERTAINTY_MEASURE_WITH_UNIT (LENGTH_MEASURE( 1.000000000000000082E-05 ), #996, 'distance_accuracy_value', 'NONE');
#476 = DIRECTION ( 'NONE',  ( 2.081668171172169992E-16, -1.000000000000000000, -0.0000000000000000000 ) ) ;
#477 = EDGE_LOOP ( 'NONE', ( #98, #330, #655, #650 ) ) ;
#478 = FILL_AREA_STYLE ('',( #687 ) ) ;
#479 = STYLED_ITEM ( 'NONE', ( #858 ), #488 ) ;
#480 =( GEOMETRIC_REPRESENTATION_CONTEXT ( 3 ) GLOBAL_UNCERTAINTY_ASSIGNED_CONTEXT ( ( #631 ) ) GLOBAL_UNIT_ASSIGNED_CONTEXT ( ( #869, #175, #1065 ) ) REPRESENTATION_CONTEXT ( 'NONE', 'WORKASPACE' ) );
#481 = PRESENTATION_LAYER_ASSIGNMENT (  '', '', ( #677 ) ) ;
#482 = DIRECTION ( 'NONE',  ( 0.0000000000000000000, 0.0000000000000000000, -1.000000000000000000 ) ) ;
#483 = EDGE_CURVE ( 'NONE', #1101, #662, #1120, .T. ) ;
#484 = DIRECTION ( 'NONE',  ( 0.0000000000000000000, -0.0000000000000000000, 1.000000000000000000 ) ) ;
#485 = EDGE_LOOP ( 'NONE', ( #667, #405, #790, #1104 ) ) ;
#486 = CARTESIAN_POINT ( 'NONE',  ( -4.999999999999999112, -9.000000000000007105, 0.0000000000000000000 ) ) ;
#487 = PLANE ( 'NONE',  #361 ) ;
#488 = ADVANCED_FACE ( 'NONE', ( #331 ), #223, .T. ) ;
#489 = SURFACE_STYLE_USAGE ( .BOTH. , #925 ) ;
#490 = LINE ( 'NONE', #48, #690 ) ;
#491 = ORIENTED_EDGE ( 'NONE', *, *, #964, .F. ) ;
#492 = PRESENTATION_LAYER_ASSIGNMENT (  '', '', ( #1108 ) ) ;
#493 = DIRECTION ( 'NONE',  ( -0.0000000000000000000, -1.000000000000000000, -0.0000000000000000000 ) ) ;
#494 = FACE_OUTER_BOUND ( 'NONE', #106, .T. ) ;
#495 = PRESENTATION_LAYER_ASSIGNMENT (  '', '', ( #531 ) ) ;
#496 = CARTESIAN_POINT ( 'NONE',  ( 5.000000000000000888, -9.000000000000010658, 4.000000000000000000 ) ) ;
#497 = DIRECTION ( 'NONE',  ( 0.0000000000000000000, 0.0000000000000000000, -1.000000000000000000 ) ) ;
#498 = VERTEX_POINT ( 'NONE', #486 ) ;
#499 = VECTOR ( 'NONE', #178, 1000.000000000000000 ) ;
#500 =( GEOMETRIC_REPRESENTATION_CONTEXT ( 3 ) GLOBAL_UNCERTAINTY_ASSIGNED_CONTEXT ( ( #461 ) ) GLOBAL_UNIT_ASSIGNED_CONTEXT ( ( #502, #683, #232 ) ) REPRESENTATION_CONTEXT ( 'NONE', 'WORKASPACE' ) );
#501 = DIRECTION ( 'NONE',  ( 1.040834085586085366E-16, -1.000000000000000000, -1.040834085586085366E-16 ) ) ;
#502 =( LENGTH_UNIT ( ) NAMED_UNIT ( * ) SI_UNIT ( .MILLI., .METRE. ) );
#503 = EDGE_LOOP ( 'NONE', ( #761, #9, #285, #693 ) ) ;
#504 = EDGE_CURVE ( 'NONE', #23, #4, #13, .T. ) ;
#505 = PRESENTATION_STYLE_ASSIGNMENT (( #940 ) ) ;
#506 = PRESENTATION_STYLE_ASSIGNMENT (( #666 ) ) ;
#507 = ORIENTED_EDGE ( 'NONE', *, *, #17, .T. ) ;
#508 = EDGE_CURVE ( 'NONE', #203, #310, #1113, .T. ) ;
#509 = VECTOR ( 'NONE', #80, 1000.000000000000000 ) ;
#510 = CARTESIAN_POINT ( 'NONE',  ( -5.000000000000009770, 9.000000000000010658, 4.000000000000000000 ) ) ;
#511 = DIRECTION ( 'NONE',  ( -1.000000000000000000, 0.0000000000000000000, 0.0000000000000000000 ) ) ;
#512 = DIRECTION ( 'NONE',  ( -0.0000000000000000000, -0.0000000000000000000, -1.000000000000000000 ) ) ;
#513 = VERTEX_POINT ( 'NONE', #268 ) ;
#514 = VECTOR ( 'NONE', #755, 1000.000000000000000 ) ;
#515 = AXIS2_PLACEMENT_3D ( 'NONE', #257, #530, #1046 ) ;
#516 = EDGE_CURVE ( 'NONE', #585, #162, #979, .T. ) ;
#517 = ORIENTED_EDGE ( 'NONE', *, *, #135, .F. ) ;
#518 = DIRECTION ( 'NONE',  ( -1.000000000000000000, 0.0000000000000000000, -0.0000000000000000000 ) ) ;
#519 = AXIS2_PLACEMENT_3D ( 'NONE', #341, #611, #360 ) ;
#520 = ORIENTED_EDGE ( 'NONE', *, *, #90, .T. ) ;
#521 = LINE ( 'NONE', #542, #854 ) ;
#522 = ORIENTED_EDGE ( 'NONE', *, *, #1105, .T. ) ;
#523 = DIRECTION ( 'NONE',  ( -0.0000000000000000000, -0.0000000000000000000, 1.000000000000000000 ) ) ;
#524 = ADVANCED_FACE ( 'NONE', ( #959 ), #794, .F. ) ;
#525 = ORIENTED_EDGE ( 'NONE', *, *, #845, .T. ) ;
#526 = DIRECTION ( 'NONE',  ( 0.0000000000000000000, 0.0000000000000000000, 1.000000000000000000 ) ) ;
#527 = CARTESIAN_POINT ( 'NONE',  ( -3.100000000000000533, 0.0000000000000000000, 4.049999999999999822 ) ) ;
#528 = DIRECTION ( 'NONE',  ( 4.329780281177447940E-17, -0.7071067811865443531, 0.7071067811865506814 ) ) ;
#529 = AXIS2_PLACEMENT_3D ( 'NONE', #674, #1032, #1110 ) ;
#530 = DIRECTION ( 'NONE',  ( 0.0000000000000000000, 0.0000000000000000000, -1.000000000000000000 ) ) ;
#531 = STYLED_ITEM ( 'NONE', ( #32 ), #328 ) ;
#532 = SURFACE_STYLE_USAGE ( .BOTH. , #348 ) ;
#533 = VERTEX_POINT ( 'NONE', #448 ) ;
#534 = CARTESIAN_POINT ( 'NONE',  ( -1.100000000000000089, 0.0000000000000000000, 5.000000000000000000 ) ) ;
#535 = MECHANICAL_DESIGN_GEOMETRIC_PRESENTATION_REPRESENTATION (  '', ( #303 ), #171 ) ;
#536 = EDGE_CURVE ( 'NONE', #72, #1077, #1063, .T. ) ;
#537 =( NAMED_UNIT ( * ) SI_UNIT ( $, .STERADIAN. ) SOLID_ANGLE_UNIT ( ) );
#538 = EDGE_LOOP ( 'NONE', ( #491, #903 ) ) ;
#539 = CARTESIAN_POINT ( 'NONE',  ( -5.000000000000009770, 5.000000000000000000, 3.500000000000000000 ) ) ;
#540 = DIRECTION ( 'NONE',  ( -1.000000000000000000, 0.0000000000000000000, 0.0000000000000000000 ) ) ;
#541 = EDGE_CURVE ( 'NONE', #723, #1089, #435, .T. ) ;
#542 = CARTESIAN_POINT ( 'NONE',  ( 499010.0000000000582, -4.999999999938889772, -498997.5000000044238 ) ) ;
#543 = ORIENTED_EDGE ( 'NONE', *, *, #584, .T. ) ;
#544 = DIRECTION ( 'NONE',  ( 1.000000000000000000, 0.0000000000000000000, -0.0000000000000000000 ) ) ;
#545 = STYLED_ITEM ( 'NONE', ( #550 ), #63 ) ;
#546 = CIRCLE ( 'NONE', #332, 3.500000000035470293 ) ;
#547 = DIRECTION ( 'NONE',  ( 0.0000000000000000000, 0.0000000000000000000, 1.000000000000000000 ) ) ;
#548 = PLANE ( 'NONE',  #586 ) ;
#549 = EDGE_CURVE ( 'NONE', #851, #264, #876, .T. ) ;
#550 = PRESENTATION_STYLE_ASSIGNMENT (( #718 ) ) ;
#551 = FACE_OUTER_BOUND ( 'NONE', #726, .T. ) ;
#552 = AXIS2_PLACEMENT_3D ( 'NONE', #988, #747, #1098 ) ;
#553 = VERTEX_POINT ( 'NONE', #609 ) ;
#554 = CIRCLE ( 'NONE', #342, 2.000000000000000000 ) ;
#555 =( NAMED_UNIT ( * ) PLANE_ANGLE_UNIT ( ) SI_UNIT ( $, .RADIAN. ) );
#556 = DIRECTION ( 'NONE',  ( 0.0000000000000000000, 1.000000000000000000, 0.0000000000000000000 ) ) ;
#557 = FILL_AREA_STYLE_COLOUR ( '', #429 ) ;
#558 = LINE ( 'NONE', #904, #787 ) ;
#559 = PRODUCT_DEFINITION ( 'UNKNOWN', '', #588, #289 ) ;
#560 = ORIENTED_EDGE ( 'NONE', *, *, #142, .T. ) ;
#561 = DIRECTION ( 'NONE',  ( -0.0000000000000000000, -0.0000000000000000000, 1.000000000000000000 ) ) ;
#562 = DIRECTION ( 'NONE',  ( -1.000000000000000000, 0.0000000000000000000, -0.0000000000000000000 ) ) ;
#563 = CARTESIAN_POINT ( 'NONE',  ( -12.50000000000000000, -8.500000000000000000, 4.000000000000000000 ) ) ;
#564 = ORIENTED_EDGE ( 'NONE', *, *, #516, .T. ) ;
#565 = PLANE ( 'NONE',  #1114 ) ;
#566 = ADVANCED_FACE ( 'NONE', ( #158 ), #338, .F. ) ;
#567 = COLOUR_RGB ( '',0.5176470588235293491, 0.5176470588235293491, 0.5176470588235293491 ) ;
#568 = FILL_AREA_STYLE ('',( #994 ) ) ;
#569 = DIRECTION ( 'NONE',  ( 0.0000000000000000000, 0.0000000000000000000, -1.000000000000000000 ) ) ;
#570 = DIRECTION ( 'NONE',  ( 1.000000000000000000, 0.0000000000000000000, 0.0000000000000000000 ) ) ;
#571 = SURFACE_STYLE_FILL_AREA ( #724 ) ;
#572 = ORIENTED_EDGE ( 'NONE', *, *, #623, .T. ) ;
#573 = VECTOR ( 'NONE', #1007, 1000.000000000000000 ) ;
#574 = MECHANICAL_DESIGN_GEOMETRIC_PRESENTATION_REPRESENTATION (  '', ( #1061 ), #124 ) ;
#575 = DIRECTION ( 'NONE',  ( 1.000000000000000000, 0.0000000000000000000, 0.0000000000000000000 ) ) ;
#576 = SURFACE_STYLE_FILL_AREA ( #210 ) ;
#577 = DIRECTION ( 'NONE',  ( -1.734723475976810053E-16, 1.000000000000000000, -0.0000000000000000000 ) ) ;
#578 = ORIENTED_EDGE ( 'NONE', *, *, #823, .T. ) ;
#579 = DIRECTION ( 'NONE',  ( -1.000000000000000000, 0.0000000000000000000, 0.0000000000000000000 ) ) ;
#580 =( NAMED_UNIT ( * ) PLANE_ANGLE_UNIT ( ) SI_UNIT ( $, .RADIAN. ) );
#581 = ORIENTED_EDGE ( 'NONE', *, *, #383, .F. ) ;
#582 = AXIS2_PLACEMENT_3D ( 'NONE', #916, #482, #562 ) ;
#583 = DIRECTION ( 'NONE',  ( 0.0000000000000000000, 0.0000000000000000000, -1.000000000000000000 ) ) ;
#584 = EDGE_CURVE ( 'NONE', #645, #680, #8, .T. ) ;
#585 = VERTEX_POINT ( 'NONE', #75 ) ;
#586 = AXIS2_PLACEMENT_3D ( 'NONE', #647, #189, #195 ) ;
#587 = CIRCLE ( 'NONE', #752, 0.6000000000000000888 ) ;
#588 = PRODUCT_DEFINITION_FORMATION_WITH_SPECIFIED_SOURCE ( 'ANY', '', #182, .NOT_KNOWN. ) ;
#589 = LINE ( 'NONE', #496, #60 ) ;
#590 = FILL_AREA_STYLE_COLOUR ( '', #877 ) ;
#591 = DIRECTION ( 'NONE',  ( 0.0000000000000000000, 0.0000000000000000000, -1.000000000000000000 ) ) ;
#592 = EDGE_LOOP ( 'NONE', ( #1034, #51, #337, #131 ) ) ;
#593 = DIRECTION ( 'NONE',  ( 0.0000000000000000000, 0.0000000000000000000, 1.000000000000000000 ) ) ;
#594 = CARTESIAN_POINT ( 'NONE',  ( 5.000000000000000000, -5.000000000000000000, 0.0000000000000000000 ) ) ;
#595 = ORIENTED_EDGE ( 'NONE', *, *, #1043, .F. ) ;
#596 = ADVANCED_FACE ( 'NONE', ( #694 ), #1060, .T. ) ;
#597 = STYLED_ITEM ( 'NONE', ( #505 ), #164 ) ;
#598 = SURFACE_STYLE_FILL_AREA ( #834 ) ;
#599 = ORIENTED_EDGE ( 'NONE', *, *, #383, .T. ) ;
#600 = DIRECTION ( 'NONE',  ( -0.0000000000000000000, -0.0000000000000000000, 1.000000000000000000 ) ) ;
#601 = MECHANICAL_DESIGN_GEOMETRIC_PRESENTATION_REPRESENTATION (  '', ( #53 ), #663 ) ;
#602 = VECTOR ( 'NONE', #802, 1000.000000000000000 ) ;
#603 = LINE ( 'NONE', #893, #1075 ) ;
#604 = EDGE_LOOP ( 'NONE', ( #708, #684 ) ) ;
#605 = CARTESIAN_POINT ( 'NONE',  ( -5.000000000000000000, -5.000000000000000000, 4.000000000000000000 ) ) ;
#606 = EDGE_LOOP ( 'NONE', ( #126, #218 ) ) ;
#607 = FACE_OUTER_BOUND ( 'NONE', #538, .T. ) ;
#608 = CARTESIAN_POINT ( 'NONE',  ( 5.000000000000000000, 9.000000000000007105, 0.0000000000000000000 ) ) ;
#609 = CARTESIAN_POINT ( 'NONE',  ( 6.500000000000000888, 6.500000000000000888, 4.049999999999999822 ) ) ;
#610 = ORIENTED_EDGE ( 'NONE', *, *, #1105, .F. ) ;
#611 = DIRECTION ( 'NONE',  ( -1.000000000000000000, -1.387778780781450113E-16, 0.0000000000000000000 ) ) ;
#612 = SURFACE_STYLE_FILL_AREA ( #1048 ) ;
#613 = ORIENTED_EDGE ( 'NONE', *, *, #1109, .F. ) ;
#614 = DIRECTION ( 'NONE',  ( 1.000000000000000000, 0.0000000000000000000, 0.0000000000000000000 ) ) ;
#615 = ADVANCED_FACE ( 'NONE', ( #781 ), #937, .T. ) ;
#616 = CONICAL_SURFACE ( 'NONE', #315, 4.000000000128238753, 0.7853981634542916979 ) ;
#617 = FACE_OUTER_BOUND ( 'NONE', #892, .T. ) ;
#618 = CARTESIAN_POINT ( 'NONE',  ( 4.999999999969444886, 499010.0000000000582, -498997.5000000044238 ) ) ;
#619 = PRESENTATION_LAYER_ASSIGNMENT (  '', '', ( #53 ) ) ;
#620 = ORIENTED_EDGE ( 'NONE', *, *, #584, .F. ) ;
#621 = VECTOR ( 'NONE', #911, 1000.000000000000000 ) ;
#622 = CIRCLE ( 'NONE', #440, 0.4250000000000000444 ) ;
#623 = EDGE_CURVE ( 'NONE', #1045, #900, #810, .T. ) ;
#624 = FACE_OUTER_BOUND ( 'NONE', #733, .T. ) ;
#625 = PLANE ( 'NONE',  #313 ) ;
#626 = CARTESIAN_POINT ( 'NONE',  ( 10.00000000000000000, 6.500000000000000888, 4.049999999999999822 ) ) ;
#627 = VERTEX_POINT ( 'NONE', #273 ) ;
#628 = DIRECTION ( 'NONE',  ( -0.7071067811865474617, 0.0000000000000000000, -0.7071067811865474617 ) ) ;
#629 = EDGE_CURVE ( 'NONE', #177, #316, #1081, .T. ) ;
#630 = FACE_OUTER_BOUND ( 'NONE', #393, .T. ) ;
#631 = UNCERTAINTY_MEASURE_WITH_UNIT (LENGTH_MEASURE( 1.000000000000000082E-05 ), #869, 'distance_accuracy_value', 'NONE');
#632 = CARTESIAN_POINT ( 'NONE',  ( -12.50000000000000000, -9.000000000000010658, 3.500000000000000000 ) ) ;
#633 = CARTESIAN_POINT ( 'NONE',  ( 5.000000000000000888, -9.000000000000010658, 0.0000000000000000000 ) ) ;
#634 =( GEOMETRIC_REPRESENTATION_CONTEXT ( 3 ) GLOBAL_UNCERTAINTY_ASSIGNED_CONTEXT ( ( #661 ) ) GLOBAL_UNIT_ASSIGNED_CONTEXT ( ( #831, #298, #985 ) ) REPRESENTATION_CONTEXT ( 'NONE', 'WORKASPACE' ) );
#635 =( GEOMETRIC_REPRESENTATION_CONTEXT ( 3 ) GLOBAL_UNCERTAINTY_ASSIGNED_CONTEXT ( ( #212 ) ) GLOBAL_UNIT_ASSIGNED_CONTEXT ( ( #397, #143, #950 ) ) REPRESENTATION_CONTEXT ( 'NONE', 'WORKASPACE' ) );
#636 = LINE ( 'NONE', #471, #28 ) ;
#637 =( GEOMETRIC_REPRESENTATION_CONTEXT ( 3 ) GLOBAL_UNCERTAINTY_ASSIGNED_CONTEXT ( ( #816 ) ) GLOBAL_UNIT_ASSIGNED_CONTEXT ( ( #371, #18, #107 ) ) REPRESENTATION_CONTEXT ( 'NONE', 'WORKASPACE' ) );
#638 = PRODUCT_DEFINITION_SHAPE ( 'NONE', 'NONE',  #559 ) ;
#639 = EDGE_CURVE ( 'NONE', #680, #780, #116, .T. ) ;
#640 = SURFACE_STYLE_USAGE ( .BOTH. , #466 ) ;
#641 =( LENGTH_UNIT ( ) NAMED_UNIT ( * ) SI_UNIT ( .MILLI., .METRE. ) );
#642 = FACE_OUTER_BOUND ( 'NONE', #905, .T. ) ;
#643 = CARTESIAN_POINT ( 'NONE',  ( -1.100000000000000089, 0.0000000000000000000, 5.000000000000000000 ) ) ;
#644 = MECHANICAL_DESIGN_GEOMETRIC_PRESENTATION_REPRESENTATION (  '', ( #479 ), #302 ) ;
#645 = VERTEX_POINT ( 'NONE', #825 ) ;
#646 = CYLINDRICAL_SURFACE ( 'NONE', #970, 0.4250000000000000444 ) ;
#647 = CARTESIAN_POINT ( 'NONE',  ( -12.50000000000000000, 9.000000000000010658, 4.000000000000000000 ) ) ;
#648 = SURFACE_SIDE_STYLE ('',( #21 ) ) ;
#649 = CARTESIAN_POINT ( 'NONE',  ( -12.50000000000000000, -9.000000000000010658, 4.000000000000000000 ) ) ;
#650 = ORIENTED_EDGE ( 'NONE', *, *, #508, .T. ) ;
#651 = DIRECTION ( 'NONE',  ( 0.0000000000000000000, 0.0000000000000000000, -1.000000000000000000 ) ) ;
#652 = DIRECTION ( 'NONE',  ( 1.734723475976810053E-16, -1.000000000000000000, 0.0000000000000000000 ) ) ;
#653 = CARTESIAN_POINT ( 'NONE',  ( 5.000000000000000888, 8.999999999989428900, 3.500000000021941116 ) ) ;
#654 = LINE ( 'NONE', #291, #402 ) ;
#655 = ORIENTED_EDGE ( 'NONE', *, *, #838, .T. ) ;
#656 = CYLINDRICAL_SURFACE ( 'NONE', #68, 4.000000000000000888 ) ;
#657 = PRESENTATION_LAYER_ASSIGNMENT (  '', '', ( #237 ) ) ;
#658 = DIRECTION ( 'NONE',  ( 0.0000000000000000000, 0.0000000000000000000, -1.000000000000000000 ) ) ;
#659 = DIRECTION ( 'NONE',  ( -1.000000000000000000, 0.0000000000000000000, -0.0000000000000000000 ) ) ;
#660 = CARTESIAN_POINT ( 'NONE',  ( -1.100000000000000089, 0.0000000000000000000, 4.049999999999999822 ) ) ;
#661 = UNCERTAINTY_MEASURE_WITH_UNIT (LENGTH_MEASURE( 1.000000000000000082E-05 ), #831, 'distance_accuracy_value', 'NONE');
#662 = VERTEX_POINT ( 'NONE', #917 ) ;
#663 =( GEOMETRIC_REPRESENTATION_CONTEXT ( 3 ) GLOBAL_UNCERTAINTY_ASSIGNED_CONTEXT ( ( #390 ) ) GLOBAL_UNIT_ASSIGNED_CONTEXT ( ( #799, #173, #96 ) ) REPRESENTATION_CONTEXT ( 'NONE', 'WORKASPACE' ) );
#664 = VECTOR ( 'NONE', #898, 1000.000000000000114 ) ;
#665 = DIRECTION ( 'NONE',  ( -1.000000000000000000, 0.0000000000000000000, 0.0000000000000000000 ) ) ;
#666 = SURFACE_STYLE_USAGE ( .BOTH. , #305 ) ;
#667 = ORIENTED_EDGE ( 'NONE', *, *, #472, .F. ) ;
#668 = ADVANCED_FACE ( 'NONE', ( #281 ), #548, .F. ) ;
#669 = FILL_AREA_STYLE_COLOUR ( '', #984 ) ;
#670 = ORIENTED_EDGE ( 'NONE', *, *, #639, .T. ) ;
#671 =( GEOMETRIC_REPRESENTATION_CONTEXT ( 3 ) GLOBAL_UNCERTAINTY_ASSIGNED_CONTEXT ( ( #154 ) ) GLOBAL_UNIT_ASSIGNED_CONTEXT ( ( #441, #253, #537 ) ) REPRESENTATION_CONTEXT ( 'NONE', 'WORKASPACE' ) );
#672 = CIRCLE ( 'NONE', #891, 2.000000000000000000 ) ;
#673 = EDGE_CURVE ( 'NONE', #162, #145, #460, .T. ) ;
#674 = CARTESIAN_POINT ( 'NONE',  ( -5.000000000000009770, 5.000000000000000000, 4.000000000000000000 ) ) ;
#675 = VERTEX_POINT ( 'NONE', #296 ) ;
#676 = VECTOR ( 'NONE', #245, 1000.000000000000000 ) ;
#677 = STYLED_ITEM ( 'NONE', ( #349 ), #717 ) ;
#678 = FACE_OUTER_BOUND ( 'NONE', #422, .T. ) ;
#679 = PLANE ( 'NONE',  #150 ) ;
#680 = VERTEX_POINT ( 'NONE', #208 ) ;
#681 = EDGE_CURVE ( 'NONE', #145, #333, #1074, .T. ) ;
#682 = PLANE ( 'NONE',  #452 ) ;
#683 =( NAMED_UNIT ( * ) PLANE_ANGLE_UNIT ( ) SI_UNIT ( $, .RADIAN. ) );
#684 = ORIENTED_EDGE ( 'NONE', *, *, #955, .F. ) ;
#685 = ADVANCED_FACE ( 'NONE', ( #128 ), #487, .F. ) ;
#686 = CARTESIAN_POINT ( 'NONE',  ( 0.4999999999999997780, 0.0000000000000000000, 4.000000000000000000 ) ) ;
#687 = FILL_AREA_STYLE_COLOUR ( '', #317 ) ;
#688 = ORIENTED_EDGE ( 'NONE', *, *, #41, .F. ) ;
#689 = AXIS2_PLACEMENT_3D ( 'NONE', #350, #963, #883 ) ;
#690 = VECTOR ( 'NONE', #1070, 1000.000000000000000 ) ;
#691 = CARTESIAN_POINT ( 'NONE',  ( 10.00000000000000000, -6.500000000000000888, 4.049999999999999822 ) ) ;
#692 =( LENGTH_UNIT ( ) NAMED_UNIT ( * ) SI_UNIT ( .MILLI., .METRE. ) );
#693 = ORIENTED_EDGE ( 'NONE', *, *, #249, .T. ) ;
#694 = FACE_OUTER_BOUND ( 'NONE', #462, .T. ) ;
#695 = ORIENTED_EDGE ( 'NONE', *, *, #122, .T. ) ;
#696 = CARTESIAN_POINT ( 'NONE',  ( 5.000000000000000000, 9.000000000000001776, 4.000000000000000000 ) ) ;
#697 = EDGE_CURVE ( 'NONE', #780, #23, #45, .T. ) ;
#698 = PRESENTATION_STYLE_ASSIGNMENT (( #532 ) ) ;
#699 = DIRECTION ( 'NONE',  ( 1.000000000000000000, 0.0000000000000000000, 0.0000000000000000000 ) ) ;
#700 = ORIENTED_EDGE ( 'NONE', *, *, #930, .F. ) ;
#701 = CARTESIAN_POINT ( 'NONE',  ( 0.9000000000000000222, 2.449293598294706414E-16, 4.000000000000000000 ) ) ;
#702 = FACE_OUTER_BOUND ( 'NONE', #503, .T. ) ;
#703 = DIRECTION ( 'NONE',  ( 0.0000000000000000000, 0.0000000000000000000, 1.000000000000000000 ) ) ;
#704 = DIRECTION ( 'NONE',  ( -0.0000000000000000000, -0.0000000000000000000, -1.000000000000000000 ) ) ;
#705 = MECHANICAL_DESIGN_GEOMETRIC_PRESENTATION_REPRESENTATION (  '', ( #597 ), #1004 ) ;
#706 = ADVANCED_FACE ( 'NONE', ( #630, #902 ), #288, .T. ) ;
#707 = PRESENTATION_LAYER_ASSIGNMENT (  '', '', ( #62 ) ) ;
#708 = ORIENTED_EDGE ( 'NONE', *, *, #792, .F. ) ;
#709 = CARTESIAN_POINT ( 'NONE',  ( -499000.0000000000000, 5.000000000000000000, -498987.5000000043656 ) ) ;
#710 = CARTESIAN_POINT ( 'NONE',  ( -8.500000000015470292, 5.000000000000000000, 4.000000000019099389 ) ) ;
#711 = DIRECTION ( 'NONE',  ( 0.0000000000000000000, 0.0000000000000000000, -1.000000000000000000 ) ) ;
#712 = CIRCLE ( 'NONE', #33, 4.000000000000000000 ) ;
#713 = EDGE_LOOP ( 'NONE', ( #868, #1069, #61, #1049 ) ) ;
#714 = PRESENTATION_STYLE_ASSIGNMENT (( #783 ) ) ;
#715 = PRESENTATION_LAYER_ASSIGNMENT (  '', '', ( #382 ) ) ;
#716 = DIRECTION ( 'NONE',  ( -1.000000000000000000, 0.0000000000000000000, 0.0000000000000000000 ) ) ;
#717 = ADVANCED_BREP_SHAPE_REPRESENTATION ( 'EA36F425-1501-4C9F-994F-4B9E85C4B4AF', ( #949, #262 ), #500 ) ;
#718 = SURFACE_STYLE_USAGE ( .BOTH. , #648 ) ;
#719 = SURFACE_STYLE_FILL_AREA ( #1050 ) ;
#720 = SURFACE_SIDE_STYLE ('',( #458 ) ) ;
#721 = DIRECTION ( 'NONE',  ( -1.000000000000000000, -1.734723475976810053E-16, 0.0000000000000000000 ) ) ;
#722 = DIRECTION ( 'NONE',  ( 0.0000000000000000000, 0.0000000000000000000, -1.000000000000000000 ) ) ;
#723 = VERTEX_POINT ( 'NONE', #104 ) ;
#724 = FILL_AREA_STYLE ('',( #42 ) ) ;
#725 = VECTOR ( 'NONE', #501, 1000.000000000000000 ) ;
#726 = EDGE_LOOP ( 'NONE', ( #1112, #981, #595, #449 ) ) ;
#727 = CYLINDRICAL_SURFACE ( 'NONE', #1022, 0.4250000000000000444 ) ;
#728 = FACE_OUTER_BOUND ( 'NONE', #932, .T. ) ;
#729 = SURFACE_STYLE_FILL_AREA ( #161 ) ;
#730 = CARTESIAN_POINT ( 'NONE',  ( -9.000000000000010658, 5.000000000000000000, 0.0000000000000000000 ) ) ;
#731 = DIRECTION ( 'NONE',  ( -0.0000000000000000000, -1.000000000000000000, -0.0000000000000000000 ) ) ;
#732 = AXIS2_PLACEMENT_3D ( 'NONE', #199, #569, #20 ) ;
#733 = EDGE_LOOP ( 'NONE', ( #149, #620, #827, #782 ) ) ;
#734 = SURFACE_SIDE_STYLE ('',( #474 ) ) ;
#735 = DIRECTION ( 'NONE',  ( 1.000000000000000000, 2.081668171172169992E-16, -0.0000000000000000000 ) ) ;
#736 = EDGE_CURVE ( 'NONE', #675, #316, #369, .T. ) ;
#737 = FILL_AREA_STYLE ('',( #557 ) ) ;
#738 = PRESENTATION_STYLE_ASSIGNMENT (( #398 ) ) ;
#739 = ORIENTED_EDGE ( 'NONE', *, *, #205, .T. ) ;
#740 = ORIENTED_EDGE ( 'NONE', *, *, #205, .F. ) ;
#741 = CARTESIAN_POINT ( 'NONE',  ( -1.100000000000000089, 0.0000000000000000000, 4.000000000000000000 ) ) ;
#742 = LINE ( 'NONE', #1084, #1035 ) ;
#743 = ADVANCED_FACE ( 'NONE', ( #215 ), #11, .T. ) ;
#744 = ORIENTED_EDGE ( 'NONE', *, *, #465, .T. ) ;
#745 = AXIS2_PLACEMENT_3D ( 'NONE', #793, #2, #865 ) ;
#746 = COLOUR_RGB ( '',0.5176470588235293491, 0.5176470588235293491, 0.5176470588235293491 ) ;
#747 = DIRECTION ( 'NONE',  ( 0.0000000000000000000, 0.0000000000000000000, -1.000000000000000000 ) ) ;
#748 = CARTESIAN_POINT ( 'NONE',  ( 5.000000000000007994, -8.500000000018872015, 3.999999999981127985 ) ) ;
#749 = CARTESIAN_POINT ( 'NONE',  ( -5.000000000000009770, 5.000000000000000000, 3.500000000030922820 ) ) ;
#750 = ORIENTED_EDGE ( 'NONE', *, *, #135, .T. ) ;
#751 = VECTOR ( 'NONE', #835, 1000.000000000000000 ) ;
#752 = AXIS2_PLACEMENT_3D ( 'NONE', #534, #880, #966 ) ;
#753 = EDGE_CURVE ( 'NONE', #1077, #662, #987, .T. ) ;
#754 = AXIS2_PLACEMENT_3D ( 'NONE', #749, #497, #511 ) ;
#755 = DIRECTION ( 'NONE',  ( 0.0000000000000000000, 0.0000000000000000000, 1.000000000000000000 ) ) ;
#756 = CARTESIAN_POINT ( 'NONE',  ( 9.000000000000005329, 5.000000000000000888, 0.0000000000000000000 ) ) ;
#757 = ORIENTED_EDGE ( 'NONE', *, *, #169, .T. ) ;
#758 = ADVANCED_FACE ( 'NONE', ( #494 ), #1014, .T. ) ;
#759 = DIRECTION ( 'NONE',  ( -1.387778780781450113E-16, 1.000000000000000000, -0.0000000000000000000 ) ) ;
#760 = FACE_OUTER_BOUND ( 'NONE', #477, .T. ) ;
#761 = ORIENTED_EDGE ( 'NONE', *, *, #146, .T. ) ;
#762 = CIRCLE ( 'NONE', #745, 0.4250000000000000444 ) ;
#763 =( GEOMETRIC_REPRESENTATION_CONTEXT ( 3 ) GLOBAL_UNCERTAINTY_ASSIGNED_CONTEXT ( ( #872 ) ) GLOBAL_UNIT_ASSIGNED_CONTEXT ( ( #907, #287, #183 ) ) REPRESENTATION_CONTEXT ( 'NONE', 'WORKASPACE' ) );
#764 = ADVANCED_FACE ( 'NONE', ( #347 ), #16, .F. ) ;
#765 = PLANE ( 'NONE',  #102 ) ;
#766 = DIRECTION ( 'NONE',  ( 0.0000000000000000000, 0.0000000000000000000, -1.000000000000000000 ) ) ;
#767 = ORIENTED_EDGE ( 'NONE', *, *, #127, .T. ) ;
#768 = VECTOR ( 'NONE', #476, 1000.000000000000000 ) ;
#769 = CARTESIAN_POINT ( 'NONE',  ( 10.00000000000000000, -6.500000000000000888, 4.049999999999999822 ) ) ;
#770 = CARTESIAN_POINT ( 'NONE',  ( 8.500000000000000000, 5.000000000000009770, 4.000000000000000888 ) ) ;
#771 = EDGE_LOOP ( 'NONE', ( #820, #444 ) ) ;
#772 = CARTESIAN_POINT ( 'NONE',  ( -1.100000000000000089, 0.0000000000000000000, 4.000000000000000000 ) ) ;
#773 = DIRECTION ( 'NONE',  ( -1.000000000000000000, 0.0000000000000000000, 0.0000000000000000000 ) ) ;
#774 = ORIENTED_EDGE ( 'NONE', *, *, #1058, .F. ) ;
#775 = LINE ( 'NONE', #770, #207 ) ;
#776 = ORIENTED_EDGE ( 'NONE', *, *, #536, .F. ) ;
#777 = PRESENTATION_LAYER_ASSIGNMENT (  '', '', ( #597 ) ) ;
#778 = DIRECTION ( 'NONE',  ( 0.0000000000000000000, 0.7071067811865460184, -0.7071067811865489050 ) ) ;
#779 = COLOUR_RGB ( '',0.5176470588235293491, 0.5176470588235293491, 0.5176470588235293491 ) ;
#780 = VERTEX_POINT ( 'NONE', #251 ) ;
#781 = FACE_OUTER_BOUND ( 'NONE', #1040, .T. ) ;
#782 = ORIENTED_EDGE ( 'NONE', *, *, #838, .F. ) ;
#783 = SURFACE_STYLE_USAGE ( .BOTH. , #353 ) ;
#784 = EDGE_CURVE ( 'NONE', #4, #88, #1127, .T. ) ;
#785 = APPLICATION_CONTEXT ( 'automotive_design' ) ;
#786 = VECTOR ( 'NONE', #528, 1000.000000000000114 ) ;
#787 = VECTOR ( 'NONE', #469, 1000.000000000000000 ) ;
#788 = SHAPE_DEFINITION_REPRESENTATION ( #638, #717 ) ;
#789 = DIRECTION ( 'NONE',  ( 1.000000000000000000, 0.0000000000000000000, 0.0000000000000000000 ) ) ;
#790 = ORIENTED_EDGE ( 'NONE', *, *, #25, .F. ) ;
#791 = CARTESIAN_POINT ( 'NONE',  ( -5.000000000000000000, -5.000000000000000000, 0.0000000000000000000 ) ) ;
#792 = EDGE_CURVE ( 'NONE', #240, #513, #554, .T. ) ;
#793 = CARTESIAN_POINT ( 'NONE',  ( -1.100000000000000089, 0.0000000000000000000, -3.000000000000000000 ) ) ;
#794 = PLANE ( 'NONE',  #689 ) ;
#795 = ORIENTED_EDGE ( 'NONE', *, *, #1079, .T. ) ;
#796 = DIRECTION ( 'NONE',  ( 0.0000000000000000000, 0.0000000000000000000, -1.000000000000000000 ) ) ;
#797 = DIRECTION ( 'NONE',  ( 0.0000000000000000000, -1.000000000000000000, 0.0000000000000000000 ) ) ;
#798 = CARTESIAN_POINT ( 'NONE',  ( 5.000000000000000000, -5.000000000000000000, 4.000000000000000000 ) ) ;
#799 =( LENGTH_UNIT ( ) NAMED_UNIT ( * ) SI_UNIT ( .MILLI., .METRE. ) );
#800 = STYLED_ITEM ( 'NONE', ( #1078 ), #392 ) ;
#801 = EDGE_LOOP ( 'NONE', ( #767, #1125, #416, #740 ) ) ;
#802 = DIRECTION ( 'NONE',  ( 0.7071067811865443531, 0.0000000000000000000, 0.7071067811865506814 ) ) ;
#803 = SURFACE_STYLE_USAGE ( .BOTH. , #31 ) ;
#804 = CARTESIAN_POINT ( 'NONE',  ( -1.100000000000000089, 0.0000000000000000000, -3.000000000000000000 ) ) ;
#805 = COLOUR_RGB ( '',0.5176470588235293491, 0.5176470588235293491, 0.5176470588235293491 ) ;
#806 = CARTESIAN_POINT ( 'NONE',  ( -499000.0000000000000, -5.000000000000000000, -498987.5000000042492 ) ) ;
#807 = COLOUR_RGB ( '',0.5176470588235293491, 0.5176470588235293491, 0.5176470588235293491 ) ;
#808 = ORIENTED_EDGE ( 'NONE', *, *, #906, .T. ) ;
#809 = LINE ( 'NONE', #832, #421 ) ;
#810 = LINE ( 'NONE', #395, #751 ) ;
#811 = FACE_BOUND ( 'NONE', #290, .T. ) ;
#812 = CARTESIAN_POINT ( 'NONE',  ( -9.000000000000010658, -12.50000000000000000, 3.500000000000000000 ) ) ;
#813 = EDGE_LOOP ( 'NONE', ( #246, #213, #428, #599 ) ) ;
#814 = FILL_AREA_STYLE_COLOUR ( '', #181 ) ;
#815 = PRESENTATION_STYLE_ASSIGNMENT (( #640 ) ) ;
#816 = UNCERTAINTY_MEASURE_WITH_UNIT (LENGTH_MEASURE( 1.000000000000000082E-05 ), #371, 'distance_accuracy_value', 'NONE');
#817 = VERTEX_POINT ( 'NONE', #247 ) ;
#818 = LINE ( 'NONE', #112, #975 ) ;
#819 = PRESENTATION_LAYER_ASSIGNMENT (  '', '', ( #221 ) ) ;
#820 = ORIENTED_EDGE ( 'NONE', *, *, #1121, .T. ) ;
#821 = FACE_OUTER_BOUND ( 'NONE', #866, .T. ) ;
#822 =( GEOMETRIC_REPRESENTATION_CONTEXT ( 3 ) GLOBAL_UNCERTAINTY_ASSIGNED_CONTEXT ( ( #896 ) ) GLOBAL_UNIT_ASSIGNED_CONTEXT ( ( #914, #555, #193 ) ) REPRESENTATION_CONTEXT ( 'NONE', 'WORKASPACE' ) );
#823 = EDGE_CURVE ( 'NONE', #174, #72, #1057, .T. ) ;
#824 = PLANE ( 'NONE',  #582 ) ;
#825 = CARTESIAN_POINT ( 'NONE',  ( -8.500000000007846168, -5.000000000000000888, 3.999999999997838618 ) ) ;
#826 = CARTESIAN_POINT ( 'NONE',  ( -12.50000000000000000, -8.500000000000000000, 4.000000000000000000 ) ) ;
#827 = ORIENTED_EDGE ( 'NONE', *, *, #122, .F. ) ;
#828 = PRESENTATION_LAYER_ASSIGNMENT (  '', '', ( #1061 ) ) ;
#829 = EDGE_CURVE ( 'NONE', #23, #844, #1041, .T. ) ;
#830 = DIRECTION ( 'NONE',  ( 0.0000000000000000000, 0.0000000000000000000, 1.000000000000000000 ) ) ;
#831 =( LENGTH_UNIT ( ) NAMED_UNIT ( * ) SI_UNIT ( .MILLI., .METRE. ) );
#832 = CARTESIAN_POINT ( 'NONE',  ( 6.500000000000000888, 10.00000000000000000, 4.049999999999999822 ) ) ;
#833 = EDGE_LOOP ( 'NONE', ( #222, #688, #977, #370 ) ) ;
#834 = FILL_AREA_STYLE ('',( #414 ) ) ;
#835 = DIRECTION ( 'NONE',  ( -1.000000000000000000, 0.0000000000000000000, -0.0000000000000000000 ) ) ;
#836 = CARTESIAN_POINT ( 'NONE',  ( 5.000000000000000000, 5.000000000000000000, 3.500000000000000000 ) ) ;
#837 =( NAMED_UNIT ( * ) PLANE_ANGLE_UNIT ( ) SI_UNIT ( $, .RADIAN. ) );
#838 = EDGE_CURVE ( 'NONE', #4, #203, #82, .T. ) ;
#839 = VERTEX_POINT ( 'NONE', #701 ) ;
#840 = AXIS2_PLACEMENT_3D ( 'NONE', #29, #129, #659 ) ;
#841 = CARTESIAN_POINT ( 'NONE',  ( -0.6750000000000000444, 0.0000000000000000000, -3.000000000000000000 ) ) ;
#842 =( NAMED_UNIT ( * ) PLANE_ANGLE_UNIT ( ) SI_UNIT ( $, .RADIAN. ) );
#843 = DIRECTION ( 'NONE',  ( 0.0000000000000000000, 0.0000000000000000000, -1.000000000000000000 ) ) ;
#844 = VERTEX_POINT ( 'NONE', #973 ) ;
#845 = EDGE_CURVE ( 'NONE', #991, #389, #587, .T. ) ;
#846 = VECTOR ( 'NONE', #523, 1000.000000000000000 ) ;
#847 = AXIS2_PLACEMENT_3D ( 'NONE', #643, #1010, #130 ) ;
#848 = AXIS2_PLACEMENT_3D ( 'NONE', #308, #862, #70 ) ;
#849 = CARTESIAN_POINT ( 'NONE',  ( -6.500000000000000888, 6.500000000000000888, 4.049999999999999822 ) ) ;
#850 = CARTESIAN_POINT ( 'NONE',  ( -12.50000000000000000, -6.500000000000002665, 4.000000000000000000 ) ) ;
#851 = VERTEX_POINT ( 'NONE', #438 ) ;
#852 = DIRECTION ( 'NONE',  ( 1.000000000000000000, -0.0000000000000000000, 0.0000000000000000000 ) ) ;
#853 = ORIENTED_EDGE ( 'NONE', *, *, #1043, .T. ) ;
#854 = VECTOR ( 'NONE', #882, 1000.000000000000114 ) ;
#855 = MECHANICAL_DESIGN_GEOMETRIC_PRESENTATION_REPRESENTATION (  '', ( #62 ), #79 ) ;
#856 = EDGE_CURVE ( 'NONE', #817, #1045, #163, .T. ) ;
#857 = CARTESIAN_POINT ( 'NONE',  ( -1.100000000000000089, 0.0000000000000000000, 0.0000000000000000000 ) ) ;
#858 = PRESENTATION_STYLE_ASSIGNMENT (( #946 ) ) ;
#859 = ORIENTED_EDGE ( 'NONE', *, *, #792, .T. ) ;
#860 = AXIS2_PLACEMENT_3D ( 'NONE', #255, #345, #699 ) ;
#861 = AXIS2_PLACEMENT_3D ( 'NONE', #539, #168, #886 ) ;
#862 = DIRECTION ( 'NONE',  ( 0.0000000000000000000, 0.0000000000000000000, -1.000000000000000000 ) ) ;
#863 = FACE_BOUND ( 'NONE', #604, .T. ) ;
#864 = EDGE_LOOP ( 'NONE', ( #113, #352, #76, #15 ) ) ;
#865 = DIRECTION ( 'NONE',  ( 1.000000000000000000, 0.0000000000000000000, 0.0000000000000000000 ) ) ;
#866 = EDGE_LOOP ( 'NONE', ( #47, #1044, #424, #470 ) ) ;
#867 = DIRECTION ( 'NONE',  ( 1.000000000000000000, 8.673617379884040402E-17, 0.0000000000000000000 ) ) ;
#868 = ORIENTED_EDGE ( 'NONE', *, *, #943, .F. ) ;
#869 =( LENGTH_UNIT ( ) NAMED_UNIT ( * ) SI_UNIT ( .MILLI., .METRE. ) );
#870 = EDGE_CURVE ( 'NONE', #627, #675, #321, .T. ) ;
#871 = AXIS2_PLACEMENT_3D ( 'NONE', #798, #7, #978 ) ;
#872 = UNCERTAINTY_MEASURE_WITH_UNIT (LENGTH_MEASURE( 1.000000000000000082E-05 ), #907, 'distance_accuracy_value', 'NONE');
#873 = ORIENTED_EDGE ( 'NONE', *, *, #343, .T. ) ;
#874 = DIRECTION ( 'NONE',  ( -0.0000000000000000000, -0.0000000000000000000, 1.000000000000000000 ) ) ;
#875 = PRODUCT_RELATED_PRODUCT_CATEGORY ( 'part', '', ( #182 ) ) ;
#876 = CIRCLE ( 'NONE', #860, 1.599999999999999867 ) ;
#877 = COLOUR_RGB ( '',0.5176470588235293491, 0.5176470588235293491, 0.5176470588235293491 ) ;
#878 = DIRECTION ( 'NONE',  ( 0.0000000000000000000, 0.0000000000000000000, -1.000000000000000000 ) ) ;
#879 = ORIENTED_EDGE ( 'NONE', *, *, #343, .F. ) ;
#880 = DIRECTION ( 'NONE',  ( -0.0000000000000000000, -0.0000000000000000000, -1.000000000000000000 ) ) ;
#881 = EDGE_CURVE ( 'NONE', #498, #780, #101, .T. ) ;
#882 = DIRECTION ( 'NONE',  ( -0.7071067811865443531, -8.659560562354895880E-17, 0.7071067811865506814 ) ) ;
#883 = DIRECTION ( 'NONE',  ( -0.7071067811865489050, 0.0000000000000000000, 0.7071067811865460184 ) ) ;
#884 = UNCERTAINTY_MEASURE_WITH_UNIT (LENGTH_MEASURE( 1.000000000000000082E-05 ), #229, 'distance_accuracy_value', 'NONE');
#885 = ORIENTED_EDGE ( 'NONE', *, *, #673, .T. ) ;
#886 = DIRECTION ( 'NONE',  ( -1.000000000000000000, 0.0000000000000000000, 0.0000000000000000000 ) ) ;
#887 = PLANE ( 'NONE',  #1052 ) ;
#888 = ADVANCED_FACE ( 'NONE', ( #607 ), #982, .T. ) ;
#889 = SURFACE_SIDE_STYLE ('',( #612 ) ) ;
#890 = CIRCLE ( 'NONE', #394, 4.000000000000000000 ) ;
#891 = AXIS2_PLACEMENT_3D ( 'NONE', #772, #600, #1071 ) ;
#892 = EDGE_LOOP ( 'NONE', ( #859, #43, #879, #250 ) ) ;
#893 = CARTESIAN_POINT ( 'NONE',  ( -6.500000000000000888, -6.500000000000003553, 4.049999999999999822 ) ) ;
#894 = VECTOR ( 'NONE', #722, 1000.000000000000000 ) ;
#895 = CARTESIAN_POINT ( 'NONE',  ( -9.000000000000010658, 12.50000000000000000, 0.0000000000000000000 ) ) ;
#896 = UNCERTAINTY_MEASURE_WITH_UNIT (LENGTH_MEASURE( 1.000000000000000082E-05 ), #914, 'distance_accuracy_value', 'NONE');
#897 = DIRECTION ( 'NONE',  ( 0.0000000000000000000, 0.0000000000000000000, -1.000000000000000000 ) ) ;
#898 = DIRECTION ( 'NONE',  ( 0.0000000000000000000, 0.7071067811865460184, -0.7071067811865489050 ) ) ;
#899 = MECHANICAL_DESIGN_GEOMETRIC_PRESENTATION_REPRESENTATION (  '', ( #677 ), #1042 ) ;
#900 = VERTEX_POINT ( 'NONE', #456 ) ;
#901 = PRESENTATION_STYLE_ASSIGNMENT (( #265 ) ) ;
#902 = FACE_BOUND ( 'NONE', #771, .T. ) ;
#903 = ORIENTED_EDGE ( 'NONE', *, *, #845, .F. ) ;
#904 = CARTESIAN_POINT ( 'NONE',  ( -12.50000000000000000, 9.000000000000010658, 0.0000000000000000000 ) ) ;
#905 = EDGE_LOOP ( 'NONE', ( #873, #201 ) ) ;
#906 = EDGE_CURVE ( 'NONE', #928, #553, #809, .T. ) ;
#907 =( LENGTH_UNIT ( ) NAMED_UNIT ( * ) SI_UNIT ( .MILLI., .METRE. ) );
#908 = DIRECTION ( 'NONE',  ( 1.000000000000000000, 0.0000000000000000000, 0.0000000000000000000 ) ) ;
#909 = UNCERTAINTY_MEASURE_WITH_UNIT (LENGTH_MEASURE( 1.000000000000000082E-05 ), #40, 'distance_accuracy_value', 'NONE');
#910 = CARTESIAN_POINT ( 'NONE',  ( 0.9000000000000000222, 2.449293598294706414E-16, 4.049999999999999822 ) ) ;
#911 = DIRECTION ( 'NONE',  ( -0.0000000000000000000, -0.0000000000000000000, 1.000000000000000000 ) ) ;
#912 = MECHANICAL_DESIGN_GEOMETRIC_PRESENTATION_REPRESENTATION (  '', ( #373 ), #763 ) ;
#913 = EDGE_LOOP ( 'NONE', ( #670, #125, #379, #1096 ) ) ;
#914 =( LENGTH_UNIT ( ) NAMED_UNIT ( * ) SI_UNIT ( .MILLI., .METRE. ) );
#915 = EDGE_CURVE ( 'NONE', #498, #585, #654, .T. ) ;
#916 = CARTESIAN_POINT ( 'NONE',  ( -12.50000000000000000, 12.50000000000000000, 4.000000000000000000 ) ) ;
#917 = CARTESIAN_POINT ( 'NONE',  ( 8.500000000018872015, 5.000000000000009770, 3.999999999981127985 ) ) ;
#918 = CARTESIAN_POINT ( 'NONE',  ( -9.000000000017855939, 5.000000000000000888, 3.500000000007730261 ) ) ;
#919 = LINE ( 'NONE', #299, #621 ) ;
#920 = AXIS2_PLACEMENT_3D ( 'NONE', #87, #711, #3 ) ;
#921 = ORIENTED_EDGE ( 'NONE', *, *, #483, .T. ) ;
#922 = AXIS2_PLACEMENT_3D ( 'NONE', #445, #89, #614 ) ;
#923 = ADVANCED_FACE ( 'NONE', ( #551 ), #565, .F. ) ;
#924 = DIRECTION ( 'NONE',  ( -0.0000000000000000000, -0.7071067811865474617, -0.7071067811865474617 ) ) ;
#925 = SURFACE_SIDE_STYLE ('',( #576 ) ) ;
#926 = SURFACE_SIDE_STYLE ('',( #571 ) ) ;
#927 = UNCERTAINTY_MEASURE_WITH_UNIT (LENGTH_MEASURE( 1.000000000000000082E-05 ), #64, 'distance_accuracy_value', 'NONE');
#928 = VERTEX_POINT ( 'NONE', #22 ) ;
#929 = DIRECTION ( 'NONE',  ( 0.0000000000000000000, 0.0000000000000000000, -1.000000000000000000 ) ) ;
#930 = EDGE_CURVE ( 'NONE', #1086, #359, #919, .T. ) ;
#931 = CARTESIAN_POINT ( 'NONE',  ( 9.000000000000001776, -4.999999999999999112, 0.0000000000000000000 ) ) ;
#932 = EDGE_LOOP ( 'NONE', ( #1002, #795, #141, #1131 ) ) ;
#933 = AXIS2_PLACEMENT_3D ( 'NONE', #1053, #344, #976 ) ;
#934 = LINE ( 'NONE', #1018, #967 ) ;
#935 = CARTESIAN_POINT ( 'NONE',  ( 6.500000000000001776, 6.500000000000000888, 4.000000000000000000 ) ) ;
#936 = ORIENTED_EDGE ( 'NONE', *, *, #472, .T. ) ;
#937 = CONICAL_SURFACE ( 'NONE', #552, 3.999999999966803443, 0.7853981634542916979 ) ;
#938 = VECTOR ( 'NONE', #411, 1000.000000000000000 ) ;
#939 = CIRCLE ( 'NONE', #848, 4.000000000000000000 ) ;
#940 = SURFACE_STYLE_USAGE ( .BOTH. , #216 ) ;
#941 = LINE ( 'NONE', #314, #170 ) ;
#942 = ORIENTED_EDGE ( 'NONE', *, *, #1037, .T. ) ;
#943 = EDGE_CURVE ( 'NONE', #72, #88, #818, .T. ) ;
#944 = CARTESIAN_POINT ( 'NONE',  ( -5.000000000000009770, 9.000000000000007105, 3.499999999999999556 ) ) ;
#945 =( NAMED_UNIT ( * ) SI_UNIT ( $, .STERADIAN. ) SOLID_ANGLE_UNIT ( ) );
#946 = SURFACE_STYLE_USAGE ( .BOTH. , #1029 ) ;
#947 = ORIENTED_EDGE ( 'NONE', *, *, #1031, .T. ) ;
#948 = AXIS2_PLACEMENT_3D ( 'NONE', #836, #897, #386 ) ;
#949 = MANIFOLD_SOLID_BREP ( '?????1', #372 ) ;
#950 =( NAMED_UNIT ( * ) SI_UNIT ( $, .STERADIAN. ) SOLID_ANGLE_UNIT ( ) );
#951 = DIRECTION ( 'NONE',  ( -6.938893903907196330E-17, 1.000000000000000000, -6.938893903907225912E-17 ) ) ;
#952 = ORIENTED_EDGE ( 'NONE', *, *, #169, .F. ) ;
#953 =( GEOMETRIC_REPRESENTATION_CONTEXT ( 3 ) GLOBAL_UNCERTAINTY_ASSIGNED_CONTEXT ( ( #110 ) ) GLOBAL_UNIT_ASSIGNED_CONTEXT ( ( #641, #26, #983 ) ) REPRESENTATION_CONTEXT ( 'NONE', 'WORKASPACE' ) );
#954 = PRESENTATION_LAYER_ASSIGNMENT (  '', '', ( #303 ) ) ;
#955 = EDGE_CURVE ( 'NONE', #513, #240, #209, .T. ) ;
#956 = DIRECTION ( 'NONE',  ( 0.0000000000000000000, -0.7071067811865490160, -0.7071067811865461294 ) ) ;
#957 = PRODUCT_CONTEXT ( 'NONE', #1023, 'mechanical' ) ;
#958 = ORIENTED_EDGE ( 'NONE', *, *, #1037, .F. ) ;
#959 = FACE_OUTER_BOUND ( 'NONE', #801, .T. ) ;
#960 = ORIENTED_EDGE ( 'NONE', *, *, #57, .T. ) ;
#961 = CARTESIAN_POINT ( 'NONE',  ( -1.100000000000000089, 0.0000000000000000000, 4.049999999999999822 ) ) ;
#962 = FILL_AREA_STYLE_COLOUR ( '', #280 ) ;
#963 = DIRECTION ( 'NONE',  ( -0.7071067811865461294, -9.813077866773569832E-17, -0.7071067811865490160 ) ) ;
#964 = EDGE_CURVE ( 'NONE', #389, #991, #989, .T. ) ;
#965 = ORIENTED_EDGE ( 'NONE', *, *, #249, .F. ) ;
#966 = DIRECTION ( 'NONE',  ( 1.000000000000000000, 0.0000000000000000000, 0.0000000000000000000 ) ) ;
#967 = VECTOR ( 'NONE', #759, 1000.000000000000000 ) ;
#968 = FILL_AREA_STYLE ('',( #1062 ) ) ;
#969 = CARTESIAN_POINT ( 'NONE',  ( 0.0000000000000000000, 0.0000000000000000000, 0.0000000000000000000 ) ) ;
#970 = AXIS2_PLACEMENT_3D ( 'NONE', #804, #12, #363 ) ;
#971 = PRESENTATION_STYLE_ASSIGNMENT (( #358 ) ) ;
#972 = EDGE_LOOP ( 'NONE', ( #921, #137, #1030, #340, #695, #774, #885, #517 ) ) ;
#973 = CARTESIAN_POINT ( 'NONE',  ( -5.000000000000009770, 9.000000000000010658, 0.0000000000000000000 ) ) ;
#974 = EDGE_CURVE ( 'NONE', #240, #533, #490, .T. ) ;
#975 = VECTOR ( 'NONE', #1003, 1000.000000000000000 ) ;
#976 = DIRECTION ( 'NONE',  ( -1.000000000000000000, 1.224646799147353207E-16, 0.0000000000000000000 ) ) ;
#977 = ORIENTED_EDGE ( 'NONE', *, *, #536, .T. ) ;
#978 = DIRECTION ( 'NONE',  ( -1.000000000000000000, 0.0000000000000000000, 0.0000000000000000000 ) ) ;
#979 = LINE ( 'NONE', #443, #676 ) ;
#980 = UNCERTAINTY_MEASURE_WITH_UNIT (LENGTH_MEASURE( 1.000000000000000082E-05 ), #66, 'distance_accuracy_value', 'NONE');
#981 = ORIENTED_EDGE ( 'NONE', *, *, #915, .F. ) ;
#982 = PLANE ( 'NONE',  #241 ) ;
#983 =( NAMED_UNIT ( * ) SI_UNIT ( $, .STERADIAN. ) SOLID_ANGLE_UNIT ( ) );
#984 = COLOUR_RGB ( '',0.5176470588235293491, 0.5176470588235293491, 0.5176470588235293491 ) ;
#985 =( NAMED_UNIT ( * ) SI_UNIT ( $, .STERADIAN. ) SOLID_ANGLE_UNIT ( ) );
#986 = CARTESIAN_POINT ( 'NONE',  ( -5.000000000000009770, 8.500000000000010658, 4.000000000000000000 ) ) ;
#987 = CIRCLE ( 'NONE', #1013, 3.500000000035470293 ) ;
#988 = CARTESIAN_POINT ( 'NONE',  ( 5.000000000000000000, -5.000000000000000000, 3.500000000087766239 ) ) ;
#989 = CIRCLE ( 'NONE', #847, 0.6000000000000000888 ) ;
#990 = EDGE_CURVE ( 'NONE', #4, #680, #270, .T. ) ;
#991 = VERTEX_POINT ( 'NONE', #387 ) ;
#992 = PLANE ( 'NONE',  #226 ) ;
#993 = ORIENTED_EDGE ( 'NONE', *, *, #266, .F. ) ;
#994 = FILL_AREA_STYLE_COLOUR ( '', #746 ) ;
#995 = SURFACE_STYLE_USAGE ( .BOTH. , #184 ) ;
#996 =( LENGTH_UNIT ( ) NAMED_UNIT ( * ) SI_UNIT ( .MILLI., .METRE. ) );
#997 = ADVANCED_FACE ( 'NONE', ( #284 ), #992, .F. ) ;
#998 = VERTEX_POINT ( 'NONE', #633 ) ;
#999 = SURFACE_STYLE_FILL_AREA ( #24 ) ;
#1000 = FILL_AREA_STYLE_COLOUR ( '', #117 ) ;
#1001 = CIRCLE ( 'NONE', #948, 4.000000000000000000 ) ;
#1002 = ORIENTED_EDGE ( 'NONE', *, *, #214, .T. ) ;
#1003 = DIRECTION ( 'NONE',  ( -1.000000000000000000, -0.0000000000000000000, -0.0000000000000000000 ) ) ;
#1004 =( GEOMETRIC_REPRESENTATION_CONTEXT ( 3 ) GLOBAL_UNCERTAINTY_ASSIGNED_CONTEXT ( ( #927 ) ) GLOBAL_UNIT_ASSIGNED_CONTEXT ( ( #64, #842, #1100 ) ) REPRESENTATION_CONTEXT ( 'NONE', 'WORKASPACE' ) );
#1005 = ORIENTED_EDGE ( 'NONE', *, *, #784, .T. ) ;
#1006 = EDGE_CURVE ( 'NONE', #310, #88, #191, .T. ) ;
#1007 = DIRECTION ( 'NONE',  ( 1.000000000000000000, -0.0000000000000000000, 0.0000000000000000000 ) ) ;
#1008 = VECTOR ( 'NONE', #556, 1000.000000000000000 ) ;
#1009 = FILL_AREA_STYLE_COLOUR ( '', #1021 ) ;
#1010 = DIRECTION ( 'NONE',  ( -0.0000000000000000000, -0.0000000000000000000, -1.000000000000000000 ) ) ;
#1011 = VECTOR ( 'NONE', #77, 1000.000000000000000 ) ;
#1012 = ORIENTED_EDGE ( 'NONE', *, *, #829, .T. ) ;
#1013 = AXIS2_PLACEMENT_3D ( 'NONE', #403, #929, #579 ) ;
#1014 = CYLINDRICAL_SURFACE ( 'NONE', #84, 4.000000000000000000 ) ;
#1015 = CYLINDRICAL_SURFACE ( 'NONE', #529, 4.000000000000000000 ) ;
#1016 = DIRECTION ( 'NONE',  ( -1.000000000000000000, 0.0000000000000000000, 0.0000000000000000000 ) ) ;
#1017 = ORIENTED_EDGE ( 'NONE', *, *, #1, .F. ) ;
#1018 = CARTESIAN_POINT ( 'NONE',  ( 9.000000000000010658, -12.50000000000000000, 3.500000000000000000 ) ) ;
#1019 = FACE_OUTER_BOUND ( 'NONE', #813, .T. ) ;
#1020 = EDGE_LOOP ( 'NONE', ( #560, #455, #936, #572 ) ) ;
#1021 = COLOUR_RGB ( '',0.5176470588235293491, 0.5176470588235293491, 0.5176470588235293491 ) ;
#1022 = AXIS2_PLACEMENT_3D ( 'NONE', #179, #547, #380 ) ;
#1023 = APPLICATION_CONTEXT ( 'automotive_design' ) ;
#1024 = DIRECTION ( 'NONE',  ( -0.0000000000000000000, -0.0000000000000000000, 1.000000000000000000 ) ) ;
#1025 = LINE ( 'NONE', #850, #242 ) ;
#1026 = ORIENTED_EDGE ( 'NONE', *, *, #25, .T. ) ;
#1027 = MECHANICAL_DESIGN_GEOMETRIC_PRESENTATION_REPRESENTATION (  '', ( #382 ), #480 ) ;
#1028 = SURFACE_STYLE_FILL_AREA ( #224 ) ;
#1029 = SURFACE_SIDE_STYLE ('',( #1111 ) ) ;
#1030 = ORIENTED_EDGE ( 'NONE', *, *, #231, .T. ) ;
#1031 = EDGE_CURVE ( 'NONE', #844, #174, #558, .T. ) ;
#1032 = DIRECTION ( 'NONE',  ( 0.0000000000000000000, 0.0000000000000000000, -1.000000000000000000 ) ) ;
#1033 = CARTESIAN_POINT ( 'NONE',  ( -6.500000000000000888, -6.500000000000001776, 4.049999999999999822 ) ) ;
#1034 = ORIENTED_EDGE ( 'NONE', *, *, #55, .F. ) ;
#1035 = VECTOR ( 'NONE', #190, 1000.000000000000000 ) ;
#1036 = AXIS2_PLACEMENT_3D ( 'NONE', #1119, #329, #1038 ) ;
#1037 = EDGE_CURVE ( 'NONE', #1089, #1086, #30, .T. ) ;
#1038 = DIRECTION ( 'NONE',  ( -1.000000000000000000, 0.0000000000000000000, 0.0000000000000000000 ) ) ;
#1039 = FACE_OUTER_BOUND ( 'NONE', #913, .T. ) ;
#1040 = EDGE_LOOP ( 'NONE', ( #739, #750, #236, #965 ) ) ;
#1041 = CIRCLE ( 'NONE', #515, 4.000000000000000000 ) ;
#1042 =( GEOMETRIC_REPRESENTATION_CONTEXT ( 3 ) GLOBAL_UNCERTAINTY_ASSIGNED_CONTEXT ( ( #35 ) ) GLOBAL_UNIT_ASSIGNED_CONTEXT ( ( #692, #172, #1054 ) ) REPRESENTATION_CONTEXT ( 'NONE', 'WORKASPACE' ) );
#1043 = EDGE_CURVE ( 'NONE', #998, #498, #1085, .T. ) ;
#1044 = ORIENTED_EDGE ( 'NONE', *, *, #870, .T. ) ;
#1045 = VERTEX_POINT ( 'NONE', #935 ) ;
#1046 = DIRECTION ( 'NONE',  ( -1.000000000000000000, 0.0000000000000000000, 0.0000000000000000000 ) ) ;
#1047 = FILL_AREA_STYLE ('',( #962 ) ) ;
#1048 = FILL_AREA_STYLE ('',( #1055 ) ) ;
#1049 = ORIENTED_EDGE ( 'NONE', *, *, #90, .F. ) ;
#1050 = FILL_AREA_STYLE ('',( #366 ) ) ;
#1051 = AXIS2_PLACEMENT_3D ( 'NONE', #283, #105, #570 ) ;
#1052 = AXIS2_PLACEMENT_3D ( 'NONE', #453, #10, #628 ) ;
#1053 = CARTESIAN_POINT ( 'NONE',  ( -1.700000000000000178, 7.347880794884117764E-17, 4.000000000000000000 ) ) ;
#1054 =( NAMED_UNIT ( * ) SI_UNIT ( $, .STERADIAN. ) SOLID_ANGLE_UNIT ( ) );
#1055 = FILL_AREA_STYLE_COLOUR ( '', #381 ) ;
#1056 = ORIENTED_EDGE ( 'NONE', *, *, #400, .F. ) ;
#1057 = LINE ( 'NONE', #696, #1011 ) ;
#1058 = EDGE_CURVE ( 'NONE', #162, #645, #1083, .T. ) ;
#1059 = FACE_OUTER_BOUND ( 'NONE', #592, .T. ) ;
#1060 = TOROIDAL_SURFACE ( 'NONE', #187, 0.5999999999999999778, 1.000000000000000000 ) ;
#1061 = STYLED_ITEM ( 'NONE', ( #738 ), #949 ) ;
#1062 = FILL_AREA_STYLE_COLOUR ( '', #355 ) ;
#1063 = LINE ( 'NONE', #618, #786 ) ;
#1064 = ORIENTED_EDGE ( 'NONE', *, *, #266, .T. ) ;
#1065 =( NAMED_UNIT ( * ) SI_UNIT ( $, .STERADIAN. ) SOLID_ANGLE_UNIT ( ) );
#1066 = FACE_OUTER_BOUND ( 'NONE', #1123, .T. ) ;
#1067 = CARTESIAN_POINT ( 'NONE',  ( 5.000000000000002665, -9.000000000000007105, 3.499999999999998224 ) ) ;
#1068 = CARTESIAN_POINT ( 'NONE',  ( -9.000000000000008882, 5.000000000000000000, 4.000000000000000000 ) ) ;
#1069 = ORIENTED_EDGE ( 'NONE', *, *, #823, .F. ) ;
#1070 = DIRECTION ( 'NONE',  ( 0.0000000000000000000, 0.0000000000000000000, -1.000000000000000000 ) ) ;
#1071 = DIRECTION ( 'NONE',  ( -1.000000000000000000, 0.0000000000000000000, 0.0000000000000000000 ) ) ;
#1072 = ADVANCED_FACE ( 'NONE', ( #1019 ), #765, .F. ) ;
#1073 = CARTESIAN_POINT ( 'NONE',  ( -5.000000000000009770, 8.499999999990460964, 4.000000000009549694 ) ) ;
#1074 = LINE ( 'NONE', #34, #339 ) ;
#1075 = VECTOR ( 'NONE', #272, 1000.000000000000000 ) ;
#1076 = CARTESIAN_POINT ( 'NONE',  ( 6.500000000000003553, -6.500000000000000888, 4.049999999999999822 ) ) ;
#1077 = VERTEX_POINT ( 'NONE', #319 ) ;
#1078 = PRESENTATION_STYLE_ASSIGNMENT (( #803 ) ) ;
#1079 = EDGE_CURVE ( 'NONE', #627, #177, #228, .T. ) ;
#1080 = FACE_OUTER_BOUND ( 'NONE', #485, .T. ) ;
#1081 = CIRCLE ( 'NONE', #239, 0.4250000000000000444 ) ;
#1082 = CARTESIAN_POINT ( 'NONE',  ( -9.000000000000001776, -5.000000000000000000, 4.000000000000000000 ) ) ;
#1083 = CIRCLE ( 'NONE', #156, 3.500000000030923708 ) ;
#1084 = CARTESIAN_POINT ( 'NONE',  ( 10.00000000000000000, 6.500000000000000888, 4.049999999999999822 ) ) ;
#1085 = LINE ( 'NONE', #152, #938 ) ;
#1086 = VERTEX_POINT ( 'NONE', #931 ) ;
#1087 = DIRECTION ( 'NONE',  ( -2.081668171172169992E-16, 1.000000000000000000, 0.0000000000000000000 ) ) ;
#1088 = ORIENTED_EDGE ( 'NONE', *, *, #541, .T. ) ;
#1089 = VERTEX_POINT ( 'NONE', #756 ) ;
#1090 =( NAMED_UNIT ( * ) SI_UNIT ( $, .STERADIAN. ) SOLID_ANGLE_UNIT ( ) );
#1091 = FACE_OUTER_BOUND ( 'NONE', #972, .T. ) ;
#1092 = CARTESIAN_POINT ( 'NONE',  ( -1.100000000000000089, 0.0000000000000000000, 0.0000000000000000000 ) ) ;
#1093 = UNCERTAINTY_MEASURE_WITH_UNIT (LENGTH_MEASURE( 1.000000000000000082E-05 ), #225, 'distance_accuracy_value', 'NONE');
#1094 = LINE ( 'NONE', #1076, #354 ) ;
#1095 = VECTOR ( 'NONE', #1115, 1000.000000000000000 ) ;
#1096 = ORIENTED_EDGE ( 'NONE', *, *, #259, .T. ) ;
#1097 =( NAMED_UNIT ( * ) PLANE_ANGLE_UNIT ( ) SI_UNIT ( $, .RADIAN. ) );
#1098 = DIRECTION ( 'NONE',  ( -1.000000000000000000, 0.0000000000000000000, 0.0000000000000000000 ) ) ;
#1099 = VECTOR ( 'NONE', #364, 1000.000000000000000 ) ;
#1100 =( NAMED_UNIT ( * ) SI_UNIT ( $, .STERADIAN. ) SOLID_ANGLE_UNIT ( ) );
#1101 = VERTEX_POINT ( 'NONE', #58 ) ;
#1102 = DIRECTION ( 'NONE',  ( 0.0000000000000000000, 0.0000000000000000000, -1.000000000000000000 ) ) ;
#1103 = DIRECTION ( 'NONE',  ( 1.000000000000000000, -0.0000000000000000000, 0.0000000000000000000 ) ) ;
#1104 = ORIENTED_EDGE ( 'NONE', *, *, #856, .T. ) ;
#1105 = EDGE_CURVE ( 'NONE', #293, #817, #1025, .T. ) ;
#1106 = LINE ( 'NONE', #849, #294 ) ;
#1107 = EDGE_LOOP ( 'NONE', ( #610, #581, #92, #413 ) ) ;
#1108 = STYLED_ITEM ( 'NONE', ( #418 ), #85 ) ;
#1109 = EDGE_CURVE ( 'NONE', #174, #1089, #939, .T. ) ;
#1110 = DIRECTION ( 'NONE',  ( -1.000000000000000000, 0.0000000000000000000, 0.0000000000000000000 ) ) ;
#1111 = SURFACE_STYLE_FILL_AREA ( #478 ) ;
#1112 = ORIENTED_EDGE ( 'NONE', *, *, #57, .F. ) ;
#1113 = CIRCLE ( 'NONE', #920, 3.500000000026365576 ) ;
#1114 = AXIS2_PLACEMENT_3D ( 'NONE', #649, #463, #484 ) ;
#1115 = DIRECTION ( 'NONE',  ( 0.0000000000000000000, -0.0000000000000000000, -1.000000000000000000 ) ) ;
#1116 = SURFACE_STYLE_USAGE ( .BOTH. , #148 ) ;
#1117 = ORIENTED_EDGE ( 'NONE', *, *, #231, .F. ) ;
#1118 = ADVANCED_FACE ( 'NONE', ( #760 ), #14, .T. ) ;
#1119 = CARTESIAN_POINT ( 'NONE',  ( -5.000000000000000000, -5.000000000000000000, 3.500000000000000000 ) ) ;
#1120 = LINE ( 'NONE', #121, #258 ) ;
#1121 = EDGE_CURVE ( 'NONE', #316, #177, #622, .T. ) ;
#1122 = LINE ( 'NONE', #1128, #509 ) ;
#1123 = EDGE_LOOP ( 'NONE', ( #507, #300, #1064, #808 ) ) ;
#1124 = FILL_AREA_STYLE_COLOUR ( '', #805 ) ;
#1125 = ORIENTED_EDGE ( 'NONE', *, *, #433, .F. ) ;
#1126 = CARTESIAN_POINT ( 'NONE',  ( -2.600000000000000533, 0.0000000000000000000, 5.000000000000000000 ) ) ;
#1127 = CIRCLE ( 'NONE', #861, 4.000000000000000000 ) ;
#1128 = CARTESIAN_POINT ( 'NONE',  ( -12.50000000000000000, 8.500000000000010658, 4.000000000000000000 ) ) ;
#1129 = SURFACE_STYLE_FILL_AREA ( #1047 ) ;
#1130 = CARTESIAN_POINT ( 'NONE',  ( 9.000000000000008882, 5.000000000000000888, 4.000000000000000000 ) ) ;
#1131 = ORIENTED_EDGE ( 'NONE', *, *, #736, .F. ) ;
#1132 = DIRECTION ( 'NONE',  ( -1.000000000000000000, 0.0000000000000000000, 0.0000000000000000000 ) ) ;
ENDSEC;
END-ISO-10303-21;
